<svg width="291" height="150" viewBox="0 0 291 150" fill="none" xmlns="http://www.w3.org/2000/svg">
<path d="M286.208 25H4.29199V113H286.208V25Z" stroke="#505967" stroke-width="0.5" stroke-linecap="round" stroke-dasharray="4 4"/>
<path d="M7.32317 20H2.27091C1.15479 20 0.25 20.8954 0.25 22V27C0.25 28.1046 1.15479 29 2.27091 29H7.32317C8.43929 29 9.34408 28.1046 9.34408 27V22C9.34408 20.8954 8.43929 20 7.32317 20Z" fill="#26282D" stroke="#505967" stroke-width="0.5"/>
<path d="M288.229 20H283.177C282.061 20 281.156 20.8954 281.156 22V27C281.156 28.1046 282.061 29 283.177 29H288.229C289.345 29 290.25 28.1046 290.25 27V22C290.25 20.8954 289.345 20 288.229 20Z" fill="#26282D" stroke="#505967" stroke-width="0.5"/>
<path d="M7.32317 108H2.27091C1.15479 108 0.25 108.895 0.25 110V115C0.25 116.105 1.15479 117 2.27091 117H7.32317C8.43929 117 9.34408 116.105 9.34408 115V110C9.34408 108.895 8.43929 108 7.32317 108Z" fill="#26282D" stroke="#505967" stroke-width="0.5"/>
<path d="M288.229 108H283.177C282.061 108 281.156 108.895 281.156 110V115C281.156 116.105 282.061 117 283.177 117H288.229C289.345 117 290.25 116.105 290.25 115V110C290.25 108.895 289.345 108 288.229 108Z" fill="#26282D" stroke="#505967" stroke-width="0.5"/>
<path d="M231.644 10H58.8562C55.5078 10 52.7935 12.6863 52.7935 16V38C52.7935 41.3137 55.5078 44 58.8562 44H231.644C234.992 44 237.706 41.3137 237.706 38V16C237.706 12.6863 234.992 10 231.644 10Z" fill="#26282D"/>
<path d="M231.644 10.25H58.8565C55.6477 10.25 53.0464 12.8244 53.0464 16V38C53.0464 41.1756 55.6477 43.75 58.8565 43.75H231.644C234.853 43.75 237.454 41.1756 237.454 38V16C237.454 12.8244 234.853 10.25 231.644 10.25Z" stroke="#505967" stroke-width="0.5"/>
<path d="M114.431 24H86.1383C84.4641 24 83.1069 25.3431 83.1069 27C83.1069 28.6569 84.4641 30 86.1383 30H114.431C116.105 30 117.462 28.6569 117.462 27C117.462 25.3431 116.105 24 114.431 24Z" fill="#505967"/>
<path fill-rule="evenodd" clip-rule="evenodd" d="M63.7361 23.6702C63.6314 23.8835 63.5732 24.1202 63.5732 24.3694V29.6313C63.5732 30.5715 64.4026 31.3337 65.4257 31.3337H72.4989C73.522 31.3337 74.3513 30.5715 74.3513 29.6313V24.3694C74.3513 24.1202 74.2931 23.8835 74.1885 23.6702L69.3016 27.5522C69.109 27.7051 68.8156 27.7051 68.623 27.5522L63.7361 23.6702ZM73.5602 22.9739C73.2596 22.7805 72.8937 22.667 72.4989 22.667H65.4257C65.0309 22.667 64.6649 22.7805 64.3644 22.9739L68.9623 26.6263L73.5602 22.9739Z" fill="#6B9FFF"/>
<path d="M220.781 22.0625C220.781 24.1336 219.654 26 217.56 26C219.654 26 220.781 27.8664 220.781 29.9375C220.781 27.8664 221.909 26 224.002 26C221.909 26 220.781 24.1336 220.781 22.0625Z" fill="#505967"/>
<path d="M215.477 28.0625C215.477 29.3051 214.269 30.5 213.013 30.5C214.269 30.5 215.477 31.6949 215.477 32.9375C215.477 31.6949 216.684 30.5 217.939 30.5C216.684 30.5 215.477 29.3051 215.477 28.0625Z" fill="#505967"/>
<path d="M220.781 22.0625C220.781 24.1336 219.654 26 217.56 26C219.654 26 220.781 27.8664 220.781 29.9375C220.781 27.8664 221.909 26 224.002 26C221.909 26 220.781 24.1336 220.781 22.0625Z" stroke="#505967" stroke-width="1.35" stroke-linecap="round" stroke-linejoin="round"/>
<path d="M215.477 28.0625C215.477 29.3051 214.269 30.5 213.013 30.5C214.269 30.5 215.477 31.6949 215.477 32.9375C215.477 31.6949 216.684 30.5 217.939 30.5C216.684 30.5 215.477 29.3051 215.477 28.0625Z" stroke="#505967" stroke-width="1.35" stroke-linecap="round" stroke-linejoin="round"/>
<path d="M231.644 92H58.8562C55.5078 92 52.7935 94.6863 52.7935 98V120C52.7935 123.314 55.5078 126 58.8562 126H231.644C234.992 126 237.706 123.314 237.706 120V98C237.706 94.6863 234.992 92 231.644 92Z" fill="#26282D"/>
<path d="M231.644 92.25H58.8565C55.6477 92.25 53.0464 94.8244 53.0464 98V120C53.0464 123.176 55.6477 125.75 58.8565 125.75H231.644C234.853 125.75 237.454 123.176 237.454 120V98C237.454 94.8244 234.853 92.25 231.644 92.25Z" stroke="#505967" stroke-width="0.5"/>
<path d="M124.536 106H86.1383C84.4641 106 83.1069 107.343 83.1069 109C83.1069 110.657 84.4641 112 86.1383 112H124.536C126.21 112 127.567 110.657 127.567 109C127.567 107.343 126.21 106 124.536 106Z" fill="#505967"/>
<path fill-rule="evenodd" clip-rule="evenodd" d="M68.6753 114.246C68.6754 114.247 68.6755 114.247 68.9596 113.833L68.6753 114.246ZM69.2443 114.246L69.2482 114.244L69.2587 114.236L69.297 114.21C69.33 114.187 69.3773 114.154 69.4373 114.111C69.557 114.025 69.7268 113.9 69.9299 113.742C70.3353 113.426 70.8777 112.975 71.422 112.437C71.9646 111.9 72.5205 111.264 72.9433 110.578C73.3639 109.895 73.6751 109.127 73.6751 108.333C73.6751 105.714 71.4611 103.667 68.9596 103.667C66.4581 103.667 64.2441 105.714 64.2441 108.333C64.2441 109.127 64.5554 109.895 64.9759 110.578C65.3988 111.264 65.9546 111.9 66.4972 112.437C67.0416 112.975 67.584 113.426 67.9894 113.742C68.1925 113.9 68.3622 114.025 68.482 114.111C68.5419 114.154 68.5893 114.187 68.6222 114.21L68.6605 114.236L68.671 114.244L68.6741 114.246H68.6753C68.8468 114.362 69.0728 114.362 69.2443 114.246ZM68.9596 113.833L69.2443 114.246C69.2442 114.246 69.2438 114.247 68.9596 113.833ZM67.1078 108.333C67.1078 107.32 67.9371 106.5 68.9602 106.5C69.9834 106.5 70.8128 107.32 70.8128 108.333C70.8128 109.345 69.9834 110.166 68.9602 110.166C67.9371 110.166 67.1078 109.345 67.1078 108.333Z" fill="#6B9FFF"/>
<path d="M220.781 104.062C220.781 106.134 219.654 108 217.56 108C219.654 108 220.781 109.866 220.781 111.937C220.781 109.866 221.909 108 224.002 108C221.909 108 220.781 106.134 220.781 104.062Z" fill="#505967"/>
<path d="M215.477 110.062C215.477 111.305 214.269 112.5 213.013 112.5C214.269 112.5 215.477 113.695 215.477 114.937C215.477 113.695 216.684 112.5 217.939 112.5C216.684 112.5 215.477 111.305 215.477 110.062Z" fill="#505967"/>
<path d="M220.781 104.062C220.781 106.134 219.654 108 217.56 108C219.654 108 220.781 109.866 220.781 111.937C220.781 109.866 221.909 108 224.002 108C221.909 108 220.781 106.134 220.781 104.062Z" stroke="#505967" stroke-width="1.35" stroke-linecap="round" stroke-linejoin="round"/>
<path d="M215.477 110.062C215.477 111.305 214.269 112.5 213.013 112.5C214.269 112.5 215.477 113.695 215.477 114.937C215.477 113.695 216.684 112.5 217.939 112.5C216.684 112.5 215.477 111.305 215.477 110.062Z" stroke="#505967" stroke-width="1.35" stroke-linecap="round" stroke-linejoin="round"/>
<path d="M231.644 51H58.8562C55.5078 51 52.7935 53.6863 52.7935 57V79C52.7935 82.3137 55.5078 85 58.8562 85H231.644C234.992 85 237.706 82.3137 237.706 79V57C237.706 53.6863 234.992 51 231.644 51Z" fill="#26282D"/>
<path d="M231.644 51.25H58.8565C55.6477 51.25 53.0464 53.8244 53.0464 57V79C53.0464 82.1756 55.6477 84.75 58.8565 84.75H231.644C234.853 84.75 237.454 82.1756 237.454 79V57C237.454 53.8244 234.853 51.25 231.644 51.25Z" stroke="#505967" stroke-width="0.5"/>
<path d="M136.661 65H86.1383C84.4641 65 83.1069 66.3431 83.1069 68C83.1069 69.6569 84.4641 71 86.1383 71H136.661C138.335 71 139.692 69.6569 139.692 68C139.692 66.3431 138.335 65 136.661 65Z" fill="#505967"/>
<path d="M64.0781 72.8332L66.941 72.1666L73.2011 65.9713C73.4641 65.711 73.4641 65.2888 73.2011 65.0285L71.9644 63.8046C71.7014 63.5443 71.2748 63.5443 71.0118 63.8046L64.7517 69.9999L64.0781 72.8332Z" fill="#6F7988" stroke="#6F7988" stroke-width="1.2" stroke-linecap="round" stroke-linejoin="round"/>
<path d="M73.846 72.833H70.1411" stroke="#6F7988" stroke-width="1.2" stroke-linecap="round" stroke-linejoin="round"/>
<path d="M220.781 63.0625C220.781 65.1336 219.654 67 217.56 67C219.654 67 220.781 68.8664 220.781 70.9375C220.781 68.8664 221.909 67 224.002 67C221.909 67 220.781 65.1336 220.781 63.0625Z" fill="#9098A0"/>
<path d="M215.477 69.0625C215.477 70.3051 214.269 71.5 213.013 71.5C214.269 71.5 215.477 72.6949 215.477 73.9375C215.477 72.6949 216.684 71.5 217.939 71.5C216.684 71.5 215.477 70.3051 215.477 69.0625Z" fill="#9098A0"/>
<path d="M220.781 63.0625C220.781 65.1336 219.654 67 217.56 67C219.654 67 220.781 68.8664 220.781 70.9375C220.781 68.8664 221.909 67 224.002 67C221.909 67 220.781 65.1336 220.781 63.0625Z" stroke="#9098A0" stroke-width="1.35" stroke-linecap="round" stroke-linejoin="round"/>
<path d="M215.477 69.0625C215.477 70.3051 214.269 71.5 213.013 71.5C214.269 71.5 215.477 72.6949 215.477 73.9375C215.477 72.6949 216.684 71.5 217.939 71.5C216.684 71.5 215.477 70.3051 215.477 69.0625Z" stroke="#9098A0" stroke-width="1.35" stroke-linecap="round" stroke-linejoin="round"/>
</svg>
