<svg width="34" height="34" viewBox="0 0 34 34" fill="none" xmlns="http://www.w3.org/2000/svg">
<g clip-path="url(#clip0_846_97460)">
<path d="M17 34.5999C26.3888 34.5999 34 26.9887 34 17.5999C34 8.21101 26.3888 0.599854 17 0.599854C7.61116 0.599854 0 8.21101 0 17.5999C0 26.9887 7.61116 34.5999 17 34.5999Z" fill="white"/>
<mask id="mask0_846_97460" style="mask-type:luminance" maskUnits="userSpaceOnUse" x="3" y="4" width="28" height="27">
<path d="M30.0335 4.56665H3.9668V30.6333H30.0335V4.56665Z" fill="white"/>
</mask>
<g mask="url(#mask0_846_97460)">
<path d="M26.1939 9.94619L18.2163 6.13345C17.3701 5.72476 16.3724 5.78006 15.5763 6.28035L7.34435 11.4642C6.54826 11.9645 6.06625 12.8415 6.07034 13.7812L6.10067 22.5968C6.10484 23.6388 6.70245 24.5884 7.6408 25.043L15.6184 28.8558C16.4646 29.2645 17.4623 29.2092 18.2584 28.7089L26.4903 23.525C27.2864 23.0247 27.7684 22.1478 27.7643 21.2081L27.7489 16.4685L27.7357 12.3925C27.7316 11.3504 27.1339 10.4009 26.1973 9.94789L26.1939 9.94619Z" fill="white" stroke="#31373D" stroke-miterlimit="10"/>
<g opacity="0.8">
<mask id="path-4-inside-1_846_97460" fill="white">
<path d="M14.9378 25.7565L9.24959 23.037C8.66805 22.7552 8.28935 22.154 8.28733 21.5061L8.26562 15.1409"/>
</mask>
<path d="M14.9378 25.7565L9.24959 23.037C8.66805 22.7552 8.28935 22.154 8.28733 21.5061L8.26562 15.1409" fill="white"/>
<path d="M9.24959 23.037L8.81351 23.9369L8.81826 23.9392L9.24959 23.037ZM8.28733 21.5061L9.28733 21.503L9.28733 21.5027L8.28733 21.5061ZM14.9378 25.7565L15.3691 24.8543L9.68093 22.1348L9.24959 23.037L8.81826 23.9392L14.5065 26.6587L14.9378 25.7565ZM9.24959 23.037L9.68567 22.1371C9.44789 22.0218 9.28816 21.7686 9.28733 21.503L8.28733 21.5061L7.28734 21.5092C7.29055 22.5393 7.88822 23.4885 8.81352 23.9369L9.24959 23.037ZM8.28733 21.5061L9.28733 21.5027L9.26562 15.1375L8.26562 15.1409L7.26563 15.1443L7.28734 21.5095L8.28733 21.5061Z" fill="#31373D" mask="url(#path-4-inside-1_846_97460)"/>
<path d="M14.9378 25.7565L9.24959 23.037C8.66805 22.7552 8.28935 22.154 8.28733 21.5061L8.26562 15.1409" stroke="#31373D" stroke-width="0.8" stroke-miterlimit="10"/>
<mask id="path-7-inside-2_846_97460" fill="white">
<path d="M9.41016 14.2902L15.1706 16.7637C15.8517 17.063 16.2939 17.6897 16.2963 18.3653L16.3193 24.2238"/>
</mask>
<path d="M9.41016 14.2902L15.1706 16.7637C15.8517 17.063 16.2939 17.6897 16.2963 18.3653L16.3193 24.2238" fill="white"/>
<path d="M15.1706 16.7636L15.5729 15.8481L15.5651 15.8448L15.1706 16.7636ZM16.2963 18.3653L15.2963 18.3688L15.2963 18.3692L16.2963 18.3653ZM9.41016 14.2902L9.0156 15.209L14.776 17.6825L15.1706 16.7636L15.5651 15.8448L9.80471 13.3713L9.41016 14.2902ZM15.1706 16.7636L14.7682 17.6791C15.1366 17.841 15.2955 18.1398 15.2963 18.3688L16.2963 18.3653L17.2963 18.3618C17.2923 17.2396 16.5667 16.2849 15.5729 15.8482L15.1706 16.7636ZM16.2963 18.3653L15.2963 18.3692L15.3193 24.2278L16.3193 24.2238L17.3193 24.2199L17.2963 18.3614L16.2963 18.3653Z" fill="#31373D" mask="url(#path-7-inside-2_846_97460)"/>
<path d="M10.4512 14.7191L15.3438 17.0858C15.9223 17.3722 16.2979 17.9719 16.2999 18.6183L16.3195 24.2239" stroke="#31373D" stroke-width="0.8" stroke-miterlimit="10"/>
<mask id="path-10-inside-3_846_97460" fill="white">
<path d="M8.27813 17.7715L8.26807 14.6091C8.26786 14.3254 8.46463 14.1702 8.54985 14.1159C8.63507 14.0631 8.86132 13.9514 9.1172 14.0752L10.7378 14.8584"/>
</mask>
<path d="M8.27813 17.7715L8.26807 14.6091C8.26786 14.3254 8.46463 14.1702 8.54985 14.1159C8.63507 14.0631 8.86132 13.9514 9.1172 14.0752L10.7378 14.8584" fill="white"/>
<path d="M8.26807 14.6091L7.26806 14.6099L7.26807 14.6123L8.26807 14.6091ZM8.54985 14.1159L8.02313 13.2658L8.01248 13.2726L8.54985 14.1159ZM9.1172 14.0752L8.68167 14.9754L8.68206 14.9756L9.1172 14.0752ZM8.27813 17.7715L9.27812 17.7684L9.26806 14.606L8.26807 14.6091L7.26807 14.6123L7.27813 17.7747L8.27813 17.7715ZM8.26807 14.6091L9.26807 14.6084C9.26815 14.715 9.22668 14.8092 9.18151 14.8704C9.14451 14.9205 9.10794 14.9461 9.08721 14.9593L8.54985 14.1159L8.01248 13.2726C7.83189 13.3877 7.26747 13.8054 7.26807 14.6099L8.26807 14.6091ZM8.54985 14.1159L9.07652 14.966C9.05713 14.978 9.01894 14.9997 8.95811 15.0114C8.88372 15.0257 8.77956 15.0228 8.68167 14.9754L9.1172 14.0752L9.55272 13.1751C8.82426 12.8226 8.1996 13.1566 8.02317 13.2659L8.54985 14.1159ZM9.1172 14.0752L8.68206 14.9756L10.3026 15.7588L10.7378 14.8584L11.1729 13.9581L9.55233 13.1749L9.1172 14.0752Z" fill="#31373D" mask="url(#path-10-inside-3_846_97460)"/>
<path d="M8.27813 17.7715L8.26807 14.6091C8.26786 14.3254 8.46463 14.1702 8.54985 14.1159C8.63507 14.0631 8.86132 13.9514 9.1172 14.0752L10.7378 14.8584" stroke="#31373D" stroke-width="0.8" stroke-miterlimit="10"/>
<mask id="path-13-inside-4_846_97460" fill="white">
<path d="M16.3105 22.0647L16.3223 25.5294C16.3225 25.8115 16.1382 25.9589 16.0592 26.0086C15.9801 26.0583 15.7678 26.1623 15.5135 26.0385L11.9312 24.3296"/>
</mask>
<path d="M16.3105 22.0647L16.3223 25.5294C16.3225 25.8115 16.1382 25.9589 16.0592 26.0086C15.9801 26.0583 15.7678 26.1623 15.5135 26.0385L11.9312 24.3296" fill="white"/>
<path d="M16.3223 25.5294L17.3223 25.5287L17.3222 25.526L16.3223 25.5294ZM16.0592 26.0086L16.5912 26.8553L16.5917 26.855L16.0592 26.0086ZM15.5135 26.0385L15.9512 25.1394L15.944 25.1359L15.5135 26.0385ZM16.3105 22.0647L15.3105 22.0681L15.3223 25.5328L16.3223 25.5294L17.3222 25.526L17.3104 22.0613L16.3105 22.0647ZM16.3223 25.5294L15.3223 25.5301C15.3222 25.4372 15.3569 25.3447 15.4066 25.2751C15.448 25.217 15.4929 25.1834 15.5267 25.1622L16.0592 26.0086L16.5917 26.855C16.7972 26.7257 17.3228 26.3123 17.3223 25.5287L16.3223 25.5294ZM16.0592 26.0086L15.5271 25.1619C15.5568 25.1433 15.6061 25.1166 15.678 25.1039C15.7645 25.0886 15.8657 25.0978 15.9512 25.1394L15.5135 26.0385L15.0757 26.9376C15.788 27.2844 16.3923 26.9803 16.5912 26.8553L16.0592 26.0086ZM15.5135 26.0385L15.944 25.1359L12.3617 23.427L11.9312 24.3296L11.5006 25.2322L15.0829 26.9411L15.5135 26.0385Z" fill="#31373D" mask="url(#path-13-inside-4_846_97460)"/>
<path d="M16.3105 22.0647L16.3223 25.5294C16.3225 25.8115 16.1382 25.9589 16.0592 26.0086C15.9801 26.0583 15.7678 26.1623 15.5135 26.0385L11.9312 24.3296" stroke="#31373D" stroke-width="0.8" stroke-miterlimit="10"/>
</g>
</g>
</g>
<defs>
<clipPath id="clip0_846_97460">
<rect width="34" height="34" fill="white"/>
</clipPath>
</defs>
</svg>
