<svg width="23" height="21" viewBox="0 0 23 21" fill="none" xmlns="http://www.w3.org/2000/svg">
<path d="M22.5 10.1411L17.4819 1.09726C17.3 0.766534 17.0354 0.490792 16.715 0.298065C16.3946 0.105338 16.0299 0.00249814 15.6579 0H6.84207C6.47007 0.00249814 6.10535 0.105338 5.78499 0.298065C5.46463 0.490792 5.20005 0.766534 5.01815 1.09726L4.38508 2.2411H15.6431L14.3918 4.48288H3.13508L1.88374 6.73973H13.1405L11.8898 8.98082H0.633065L0 10.1411L0.61828 11.2384H11.875L13.1116 13.4795H1.85282L3.10349 15.7205H14.3616L15.6122 17.9623H4.35551L5.01815 19.1534C5.20013 19.484 5.46475 19.7596 5.78511 19.9522C6.10546 20.1448 6.47014 20.2476 6.84207 20.25H15.6579C16.0299 20.2476 16.3945 20.1448 16.7149 19.9522C17.0352 19.7596 17.2999 19.484 17.4819 19.1534L22.5 10.1411Z" fill="#EF54AC"/>
</svg>
