<svg width="291" height="150" viewBox="0 0 291 150" fill="none" xmlns="http://www.w3.org/2000/svg">
<path d="M286.208 31.5H4.29199V119.5H286.208V31.5Z" stroke="#505967" stroke-width="0.5" stroke-linecap="round" stroke-dasharray="4 4"/>
<path d="M7.32317 26.5H2.27091C1.15479 26.5 0.25 27.3954 0.25 28.5V33.5C0.25 34.6046 1.15479 35.5 2.27091 35.5H7.32317C8.43929 35.5 9.34408 34.6046 9.34408 33.5V28.5C9.34408 27.3954 8.43929 26.5 7.32317 26.5Z" fill="#26282D" stroke="#505967" stroke-width="0.5"/>
<path d="M288.229 26.5H283.177C282.061 26.5 281.156 27.3954 281.156 28.5V33.5C281.156 34.6046 282.061 35.5 283.177 35.5H288.229C289.345 35.5 290.25 34.6046 290.25 33.5V28.5C290.25 27.3954 289.345 26.5 288.229 26.5Z" fill="#26282D" stroke="#505967" stroke-width="0.5"/>
<path d="M7.32317 114.5H2.27091C1.15479 114.5 0.25 115.395 0.25 116.5V121.5C0.25 122.605 1.15479 123.5 2.27091 123.5H7.32317C8.43929 123.5 9.34408 122.605 9.34408 121.5V116.5C9.34408 115.395 8.43929 114.5 7.32317 114.5Z" fill="#26282D" stroke="#505967" stroke-width="0.5"/>
<path d="M288.229 114.5H283.177C282.061 114.5 281.156 115.395 281.156 116.5V121.5C281.156 122.605 282.061 123.5 283.177 123.5H288.229C289.345 123.5 290.25 122.605 290.25 121.5V116.5C290.25 115.395 289.345 114.5 288.229 114.5Z" fill="#26282D" stroke="#505967" stroke-width="0.5"/>
<path d="M232.316 16.5H59.529C56.1807 16.5 53.4663 19.1863 53.4663 22.5V44.5C53.4663 47.8137 56.1807 50.5 59.529 50.5H232.316C235.665 50.5 238.379 47.8137 238.379 44.5V22.5C238.379 19.1863 235.665 16.5 232.316 16.5Z" fill="#26282D"/>
<path d="M232.317 16.75H59.5293C56.3205 16.75 53.7192 19.3244 53.7192 22.5V44.5C53.7192 47.6756 56.3205 50.25 59.5293 50.25H232.317C235.526 50.25 238.127 47.6756 238.127 44.5V22.5C238.127 19.3244 235.526 16.75 232.317 16.75Z" stroke="#505967" stroke-width="0.5"/>
<path d="M64.5817 36.5C66.2558 36.5 67.613 35.1569 67.613 33.5C67.613 31.8431 66.2558 30.5 64.5817 30.5C62.9075 30.5 61.5503 31.8431 61.5503 33.5C61.5503 35.1569 62.9075 36.5 64.5817 36.5Z" fill="#505967"/>
<path d="M74.6861 36.5C76.3603 36.5 77.7175 35.1569 77.7175 33.5C77.7175 31.8431 76.3603 30.5 74.6861 30.5C73.012 30.5 71.6548 31.8431 71.6548 33.5C71.6548 35.1569 73.012 36.5 74.6861 36.5Z" fill="#505967"/>
<path d="M84.7906 36.5C86.4648 36.5 87.822 35.1569 87.822 33.5C87.822 31.8431 86.4648 30.5 84.7906 30.5C83.1165 30.5 81.7593 31.8431 81.7593 33.5C81.7593 35.1569 83.1165 36.5 84.7906 36.5Z" fill="#505967"/>
<path d="M223.222 41C227.408 41 230.801 37.6421 230.801 33.5C230.801 29.3579 227.408 26 223.222 26C219.037 26 215.644 29.3579 215.644 33.5C215.644 37.6421 219.037 41 223.222 41Z" fill="#505967" stroke="#26282D"/>
<path d="M214.129 41C218.314 41 221.707 37.6421 221.707 33.5C221.707 29.3579 218.314 26 214.129 26C209.943 26 206.55 29.3579 206.55 33.5C206.55 37.6421 209.943 41 214.129 41Z" fill="#6F7988" stroke="#26282D"/>
<path d="M205.034 41C209.22 41 212.613 37.6421 212.613 33.5C212.613 29.3579 209.22 26 205.034 26C200.849 26 197.456 29.3579 197.456 33.5C197.456 37.6421 200.849 41 205.034 41Z" fill="#505967" stroke="#26282D"/>
<path d="M93.2119 57.5H59.8669C56.5186 57.5 53.8042 60.1863 53.8042 63.5V127.5C53.8042 130.814 56.5186 133.5 59.8669 133.5H93.2119C96.5602 133.5 99.2746 130.814 99.2746 127.5V63.5C99.2746 60.1863 96.5602 57.5 93.2119 57.5Z" fill="#26282D"/>
<path d="M93.2117 57.75H59.8667C56.6579 57.75 54.0566 60.3244 54.0566 63.5V127.5C54.0566 130.676 56.6579 133.25 59.8667 133.25H93.2117C96.4205 133.25 99.0218 130.676 99.0218 127.5V63.5C99.0218 60.3244 96.4205 57.75 93.2117 57.75Z" stroke="#505967" stroke-width="0.5"/>
<path d="M232.654 57.5H114.431C111.083 57.5 108.369 60.1863 108.369 63.5V127.5C108.369 130.814 111.083 133.5 114.431 133.5H232.654C236.003 133.5 238.717 130.814 238.717 127.5V63.5C238.717 60.1863 236.003 57.5 232.654 57.5Z" fill="#26282D"/>
<path d="M232.654 57.75H114.431C111.222 57.75 108.621 60.3244 108.621 63.5V127.5C108.621 130.676 111.222 133.25 114.431 133.25H232.654C235.863 133.25 238.464 130.676 238.464 127.5V63.5C238.464 60.3244 235.863 57.75 232.654 57.75Z" stroke="#505967" stroke-width="0.5"/>
<path d="M210.087 115.5H143.397C141.723 115.5 140.366 116.843 140.366 118.5C140.366 120.157 141.723 121.5 143.397 121.5H210.087C211.761 121.5 213.118 120.157 213.118 118.5C213.118 116.843 211.761 115.5 210.087 115.5Z" fill="#505967"/>
<path d="M119.146 119.037L123.941 113.667V117.963H127.056L121.92 123.334V119.037H119.146Z" fill="#6B9FFF" stroke="#6B9FFF" stroke-width="1.2" stroke-linecap="round" stroke-linejoin="round"/>
<path d="M166.638 92.5H143.397C141.723 92.5 140.366 93.8431 140.366 95.5C140.366 97.1569 141.723 98.5 143.397 98.5H166.638C168.312 98.5 169.669 97.1569 169.669 95.5C169.669 93.8431 168.312 92.5 166.638 92.5Z" fill="#505967"/>
<path d="M118.305 100.333L121.168 99.6666L127.429 93.4713C127.691 93.211 127.691 92.7888 127.429 92.5285L126.192 91.3046C125.928 91.0443 125.502 91.0443 125.239 91.3046L118.979 97.4999L118.305 100.333Z" fill="#9098A0" stroke="#9098A0" stroke-width="1.2" stroke-linecap="round" stroke-linejoin="round"/>
<path d="M128.073 100.333H124.368" stroke="#9098A0" stroke-width="1.2" stroke-linecap="round" stroke-linejoin="round"/>
<path d="M182.805 69.5H143.397C141.723 69.5 140.366 70.8431 140.366 72.5C140.366 74.1569 141.723 75.5 143.397 75.5H182.805C184.479 75.5 185.836 74.1569 185.836 72.5C185.836 70.8431 184.479 69.5 182.805 69.5Z" fill="#505967"/>
<path d="M125.376 69.8337C125.376 71.0303 124.396 72.0003 123.187 72.0003C121.978 72.0003 120.998 71.0303 120.998 69.8337C120.998 68.637 121.978 67.667 123.187 67.667C124.396 67.667 125.376 68.637 125.376 69.8337Z" fill="#6B9FFF" stroke="#6B9FFF" stroke-width="1.2" stroke-linecap="round" stroke-linejoin="round"/>
<path d="M119.716 77.333H126.658C127.427 77.333 128.019 76.6784 127.66 76.0053C127.132 75.015 125.927 73.833 123.187 73.833C120.447 73.833 119.241 75.015 118.713 76.0053C118.354 76.6784 118.946 77.333 119.716 77.333Z" fill="#6B9FFF" stroke="#6B9FFF" stroke-width="1.2" stroke-linecap="round" stroke-linejoin="round"/>
</svg>
