<svg width="292" height="150" viewBox="0 0 292 150" fill="none" xmlns="http://www.w3.org/2000/svg">
<path d="M287.198 32H4.30566V120H287.198V32Z" stroke="#505967" stroke-width="0.5" stroke-linecap="round" stroke-dasharray="4 4"/>
<path d="M7.34765 27H2.2779C1.15792 27 0.25 27.8954 0.25 29V34C0.25 35.1046 1.15792 36 2.2779 36H7.34765C8.46762 36 9.37554 35.1046 9.37554 34V29C9.37554 27.8954 8.46762 27 7.34765 27Z" fill="#26282D" stroke="#505967" stroke-width="0.5"/>
<path d="M289.226 27H284.156C283.036 27 282.128 27.8954 282.128 29V34C282.128 35.1046 283.036 36 284.156 36H289.226C290.346 36 291.253 35.1046 291.253 34V29C291.253 27.8954 290.346 27 289.226 27Z" fill="#26282D" stroke="#505967" stroke-width="0.5"/>
<path d="M7.34765 115H2.2779C1.15792 115 0.25 115.895 0.25 117V122C0.25 123.105 1.15792 124 2.2779 124H7.34765C8.46762 124 9.37554 123.105 9.37554 122V117C9.37554 115.895 8.46762 115 7.34765 115Z" fill="#26282D" stroke="#505967" stroke-width="0.5"/>
<path d="M289.226 115H284.156C283.036 115 282.128 115.895 282.128 117V122C282.128 123.105 283.036 124 284.156 124H289.226C290.346 124 291.253 123.105 291.253 122V117C291.253 115.895 290.346 115 289.226 115Z" fill="#26282D" stroke="#505967" stroke-width="0.5"/>
<path d="M216.221 17H76.2961C72.9362 17 70.2124 19.6863 70.2124 23V45C70.2124 48.3137 72.9362 51 76.2961 51H216.221C219.581 51 222.305 48.3137 222.305 45V23C222.305 19.6863 219.581 17 216.221 17Z" fill="#26282D"/>
<path d="M216.221 17.25H76.296C73.0761 17.25 70.4658 19.8244 70.4658 23V45C70.4658 48.1756 73.0761 50.75 76.296 50.75H216.221C219.441 50.75 222.051 48.1756 222.051 45V23C222.051 19.8244 219.441 17.25 216.221 17.25Z" stroke="#505967" stroke-width="0.5"/>
<path d="M159.44 34.5374L164.251 29.167V33.4633H167.377L162.223 38.8337V34.5374H159.44Z" fill="#4B8BFF" stroke="#4B8BFF" stroke-width="1.2" stroke-linecap="round" stroke-linejoin="round"/>
<path d="M196.956 31H177.691C176.011 31 174.649 32.3431 174.649 34C174.649 35.6569 176.011 37 177.691 37H196.956C198.636 37 199.998 35.6569 199.998 34C199.998 32.3431 198.636 31 196.956 31Z" fill="#4B8BFF"/>
<path d="M216.221 58H76.2961C72.9362 58 70.2124 60.6863 70.2124 64V127C70.2124 130.314 72.9362 133 76.2961 133H216.221C219.581 133 222.305 130.314 222.305 127V64C222.305 60.6863 219.581 58 216.221 58Z" fill="#26282D"/>
<path d="M216.221 58.25H76.296C73.0761 58.25 70.4658 60.8244 70.4658 64V127C70.4658 130.176 73.0761 132.75 76.296 132.75H216.221C219.441 132.75 222.051 130.176 222.051 127V64C222.051 60.8244 219.441 58.25 216.221 58.25Z" stroke="#505967" stroke-width="0.5"/>
<path d="M170.593 58V133" stroke="#505967" stroke-width="0.5"/>
<path d="M90.6595 31.3337C90.6595 32.5303 89.6758 33.5003 88.4626 33.5003C87.2493 33.5003 86.2656 32.5303 86.2656 31.3337C86.2656 30.137 87.2493 29.167 88.4626 29.167C89.6758 29.167 90.6595 30.137 90.6595 31.3337Z" fill="#6F7988" stroke="#6F7988" stroke-width="1.2" stroke-linecap="round" stroke-linejoin="round"/>
<path d="M84.9793 38.833H91.9451C92.717 38.833 93.3116 38.1784 92.9511 37.5053C92.4208 36.515 91.212 35.333 88.4622 35.333C85.7123 35.333 84.5035 36.515 83.9732 37.5053C83.6128 38.1784 84.2073 38.833 84.9793 38.833Z" fill="#6F7988" stroke="#6F7988" stroke-width="1.2" stroke-linecap="round" stroke-linejoin="round"/>
<path d="M150.314 31H103.673C101.993 31 100.631 32.3431 100.631 34C100.631 35.6569 101.993 37 103.673 37H150.314C151.994 37 153.356 35.6569 153.356 34C153.356 32.3431 151.994 31 150.314 31Z" fill="#505967"/>
<path d="M141.189 69H103.673C101.993 69 100.631 70.3431 100.631 72C100.631 73.6569 101.993 75 103.673 75H141.189C142.869 75 144.231 73.6569 144.231 72C144.231 70.3431 142.869 69 141.189 69Z" fill="#505967"/>
<path d="M90.5098 67.1719C90.5098 69.0161 89.5019 70.6781 87.6318 70.6781C89.5019 70.6781 90.5098 72.3401 90.5098 74.1844C90.5098 72.3401 91.5179 70.6781 93.3878 70.6781C91.5179 70.6781 90.5098 69.0161 90.5098 67.1719Z" fill="#6B9FFF" stroke="#6B9FFF"/>
<path d="M85.7691 72.5146C85.7691 73.6212 84.6903 74.6852 83.5684 74.6852C84.6903 74.6852 85.7691 75.7492 85.7691 76.8558C85.7691 75.7492 86.848 74.6852 87.9699 74.6852C86.848 74.6852 85.7691 73.6212 85.7691 72.5146Z" fill="#6B9FFF" stroke="#6B9FFF"/>
<path d="M90.5098 67.1719C90.5098 69.0161 89.5019 70.6781 87.6318 70.6781C89.5019 70.6781 90.5098 72.3401 90.5098 74.1844C90.5098 72.3401 91.5179 70.6781 93.3878 70.6781C91.5179 70.6781 90.5098 69.0161 90.5098 67.1719Z" stroke="#6B9FFF" stroke-width="1.20214" stroke-linecap="round" stroke-linejoin="round"/>
<path d="M85.7691 72.5146C85.7691 73.6212 84.6903 74.6852 83.5684 74.6852C84.6903 74.6852 85.7691 75.7492 85.7691 76.8558C85.7691 75.7492 86.848 74.6852 87.9699 74.6852C86.848 74.6852 85.7691 73.6212 85.7691 72.5146Z" stroke="#6B9FFF" stroke-width="1.20214" stroke-linecap="round" stroke-linejoin="round"/>
<path d="M128.007 92H103.673C101.993 92 100.631 93.3431 100.631 95C100.631 96.6569 101.993 98 103.673 98H128.007C129.687 98 131.049 96.6569 131.049 95C131.049 93.3431 129.687 92 128.007 92Z" fill="#505967"/>
<path fill-rule="evenodd" clip-rule="evenodd" d="M83.0545 91.4029C82.9554 91.604 82.9004 91.8272 82.9004 92.0621V97.0233C82.9004 97.9098 83.6851 98.6284 84.653 98.6284H91.3451C92.3131 98.6284 93.0978 97.9098 93.0978 97.0233V92.0621C93.0978 91.8272 93.0426 91.604 92.9437 91.4029L88.3201 95.063C88.1379 95.2072 87.8602 95.2072 87.6781 95.063L83.0545 91.4029ZM92.3493 90.7464C92.0649 90.564 91.7186 90.457 91.3451 90.457H84.653C84.2796 90.457 83.9333 90.564 83.6489 90.7464L87.999 94.1901L92.3493 90.7464Z" fill="#6F7988"/>
<path d="M156.398 115H103.673C101.993 115 100.631 116.343 100.631 118C100.631 119.657 101.993 121 103.673 121H156.398C158.078 121 159.44 119.657 159.44 118C159.44 116.343 158.078 115 156.398 115Z" fill="#505967"/>
<path fill-rule="evenodd" clip-rule="evenodd" d="M87.7305 121.491C87.7306 121.491 87.7307 121.491 87.9995 121.101L87.7305 121.491ZM88.2688 121.491L88.2697 121.49L88.2725 121.488L88.2825 121.482L88.3187 121.457C88.3498 121.435 88.3947 121.404 88.4514 121.363C88.5646 121.282 88.7252 121.164 88.9174 121.015C89.301 120.718 89.8141 120.293 90.3291 119.785C90.8425 119.278 91.3684 118.679 91.7685 118.032C92.1664 117.389 92.4608 116.664 92.4608 115.916C92.4608 113.446 90.3661 111.516 87.9995 111.516C85.6328 111.516 83.5381 113.446 83.5381 115.916C83.5381 116.664 83.8324 117.389 84.2303 118.032C84.6304 118.679 85.1564 119.278 85.6697 119.785C86.1848 120.293 86.698 120.718 87.0815 121.015C87.2737 121.164 87.4343 121.282 87.5475 121.363C87.6042 121.404 87.649 121.435 87.6803 121.457L87.7165 121.482L87.7264 121.488L87.7292 121.49L87.7305 121.491C87.8927 121.6 88.1065 121.6 88.2688 121.491ZM87.9995 121.101L88.2688 121.491C88.2687 121.491 88.2683 121.491 87.9995 121.101ZM86.2484 115.916C86.2484 114.961 87.0331 114.187 88.001 114.187C88.969 114.187 89.7537 114.961 89.7537 115.916C89.7537 116.87 88.969 117.644 88.001 117.644C87.0331 117.644 86.2484 116.87 86.2484 115.916Z" fill="#6B9FFF"/>
<path d="M217.235 69H179.719C178.039 69 176.677 70.3431 176.677 72C176.677 73.6569 178.039 75 179.719 75H217.235C218.915 75 220.277 73.6569 220.277 72C220.277 70.3431 218.915 69 217.235 69Z" fill="#505967"/>
<path d="M210.138 99H179.719C178.039 99 176.677 100.343 176.677 102C176.677 103.657 178.039 105 179.719 105H210.138C211.818 105 213.179 103.657 213.179 102C213.179 100.343 211.818 99 210.138 99Z" fill="#505967"/>
<path d="M193.914 114H179.719C178.039 114 176.677 115.343 176.677 117C176.677 118.657 178.039 120 179.719 120H193.914C195.594 120 196.956 118.657 196.956 117C196.956 115.343 195.594 114 193.914 114Z" fill="#4B8BFF"/>
<path d="M204.054 84H179.719C178.039 84 176.677 85.3431 176.677 87C176.677 88.6569 178.039 90 179.719 90H204.054C205.734 90 207.096 88.6569 207.096 87C207.096 85.3431 205.734 84 204.054 84Z" fill="#505967"/>
</svg>
