<svg width="20" height="20" viewBox="0 0 20 20" fill="none" xmlns="http://www.w3.org/2000/svg">
<g clip-path="url(#clip0_2048_4329)">
<mask id="mask0_2048_4329" style="mask-type:luminance" maskUnits="userSpaceOnUse" x="-1" y="-2" width="23" height="24">
<path d="M-0.600098 22L21.3999 22L21.3999 -2L-0.600098 -2L-0.600098 22Z" fill="white"/>
</mask>
<g mask="url(#mask0_2048_4329)">
<path d="M14.7498 9.95913V7.14278C14.7498 5.14258 14.7498 4.14249 14.38 3.37851C14.0547 2.7065 13.5357 2.16014 12.8973 1.81773C12.1715 1.42847 11.2214 1.42847 9.3212 1.42847H7.06212C5.37235 1.42847 4.52746 1.42847 3.86777 1.73818C3.10343 2.09702 2.49206 2.74058 2.15116 3.54515C1.85693 4.23955 1.85693 5.12891 1.85693 6.90762V9.28561C1.85693 11.2858 1.85693 12.2859 2.22673 13.0499C2.55202 13.7219 3.07106 14.2682 3.70946 14.6106C4.43524 14.9999 5.38533 14.9999 7.2855 14.9999H9.96101C11.2603 14.9999 11.9099 14.9999 12.4343 14.8151C13.4438 14.4593 14.2361 13.6252 14.5742 12.5625C14.7498 12.0105 14.7498 11.3267 14.7498 9.95913Z" stroke="#1D1E20" stroke-width="1.49286" stroke-linecap="round" stroke-linejoin="round"/>
<path d="M17.4637 6.42822C17.8898 7.02519 18.1423 7.76728 18.1423 8.57144V13.5306C18.1423 14.232 18.1423 14.5827 18.1033 14.8768C17.8523 16.7745 16.4352 18.2662 14.6324 18.5305C14.353 18.5715 14.0198 18.5715 13.3535 18.5715H9.09326C8.2159 18.5715 7.40719 18.262 6.76025 17.7412" stroke="#1D1E20" stroke-width="1.49286" stroke-linecap="round" stroke-linejoin="round"/>
</g>
</g>
<defs>
<clipPath id="clip0_2048_4329">
<rect width="20" height="20" fill="white"/>
</clipPath>
</defs>
</svg>
