<svg width="346" height="282" viewBox="0 0 346 282" fill="none" xmlns="http://www.w3.org/2000/svg">
<mask id="mask0_838_95106" style="mask-type:luminance" maskUnits="userSpaceOnUse" x="0" y="0" width="346" height="282">
<path d="M0 0.623047H346V281.448H0V0.623047Z" fill="white"/>
</mask>
<g mask="url(#mask0_838_95106)">
<path d="M0 0.623047H346V281.448H0V0.623047Z" fill="#266DF0"/>
<path d="M0.588379 102.378C0.588379 100.392 0.588379 98.9414 0.682529 97.7957C0.776678 96.656 0.957916 95.8711 1.2945 95.2131C1.91501 93.9975 2.90495 93.0091 4.12252 92.3896C4.78157 92.0547 5.56654 91.8726 6.70811 91.7786C7.85556 91.6846 9.31135 91.6846 11.2979 91.6846H333.525C335.512 91.6846 336.967 91.6846 338.115 91.7786C339.256 91.8726 340.041 92.0547 340.7 92.3896C341.918 93.0092 342.909 93.9975 343.53 95.2131C343.865 95.8711 344.048 96.656 344.14 97.7946C344.235 98.9414 344.235 100.394 344.235 102.377V268.992C344.235 270.977 344.235 272.429 344.14 273.575C344.048 274.714 343.865 275.499 343.53 276.156C342.909 277.372 341.919 278.361 340.7 278.981C340.041 279.316 339.256 279.498 338.115 279.591C336.967 279.685 335.512 279.685 333.525 279.685H11.2979C9.31135 279.685 7.85556 279.685 6.70811 279.591C5.56654 279.498 4.78157 279.316 4.12252 278.981C2.90429 278.361 1.91387 277.372 1.29332 276.156C0.957916 275.499 0.775501 274.714 0.682529 273.575C0.588379 272.429 0.588379 270.977 0.588379 268.992V102.378Z" stroke="#4B8BFF" stroke-width="1.17687"/>
<path d="M35.3062 228.572H344.823M35.3062 175.697H344.823M173 175.697V280.272M115.333 65.248V280.272M57.6667 175.697V280.272M230.667 175.697V280.272M288.333 175.697V280.272M62.3742 175.697V280.272" stroke="#4B8BFF" stroke-width="1.17687" stroke-miterlimit="10"/>
<path d="M327.545 120.392L316.391 102.571L307.556 88.4589L306.936 87.4578L305.179 84.6448C304.004 82.7693 302.371 81.2226 300.433 80.1501C298.495 79.0777 296.315 78.5145 294.1 78.5137H247.513C245.299 78.5147 243.121 79.0779 241.185 80.1505C239.249 81.223 237.618 82.7696 236.445 84.6448L213.819 120.392C212.452 122.57 211.767 125.107 211.853 127.677C211.9 129.946 212.559 132.196 213.819 134.199L224.163 150.733L236.187 169.956C237.363 171.83 238.996 173.376 240.934 174.448C242.871 175.52 245.05 176.084 247.265 176.087H293.842C298.34 176.087 302.533 173.76 304.921 169.956L306.659 167.171L306.697 167.115L318.215 148.702L327.545 134.209C328.842 132.137 329.529 129.743 329.529 127.3C329.529 124.857 328.842 122.464 327.545 120.392ZM285.428 103.868L295.81 87.4578L274.971 120.401L285.428 103.868Z" fill="#266DF0"/>
<path d="M213.821 120.392L236.426 84.6448C237.6 82.7684 239.233 81.2211 241.172 80.1485C243.11 79.0759 245.289 78.5133 247.505 78.5137H294.092C298.599 78.5137 302.782 80.8308 305.17 84.6448L327.537 120.392C328.833 122.464 329.521 124.857 329.521 127.3C329.521 129.743 328.833 132.137 327.537 134.209L304.94 169.956C303.766 171.832 302.134 173.379 300.196 174.452C298.258 175.525 296.078 176.087 293.862 176.087H247.276C242.769 176.087 238.585 173.77 236.197 169.956L224.163 150.733L213.821 134.209C212.524 132.137 211.837 129.743 211.837 127.3C211.837 124.857 212.524 122.464 213.821 120.392Z" fill="#266DF0" stroke="#6B9FFF" stroke-width="1.17687" stroke-miterlimit="10"/>
<path d="M303.327 160.106L321.062 132.063C322.866 129.183 322.866 125.446 321.062 122.556L303.289 94.1611" fill="#266DF0"/>
<path d="M303.327 160.106L321.062 132.063C322.866 129.183 322.866 125.446 321.062 122.556L303.289 94.1611" stroke="#6B9FFF" stroke-width="1.17687" stroke-miterlimit="10"/>
<path d="M292.343 98.3945L277.167 122.642C276.295 124.076 275.836 125.723 275.843 127.401C275.85 129.079 276.322 130.722 277.206 132.149L292.858 157.149" fill="#266DF0"/>
<path d="M292.343 98.3945L277.167 122.642C276.295 124.076 275.836 125.723 275.843 127.401C275.85 129.079 276.322 130.722 277.206 132.149L292.858 157.149" stroke="#6B9FFF" stroke-width="1.17687" stroke-miterlimit="10"/>
<path d="M310.603 105.889L301.778 91.7865C300.986 90.5175 299.668 90.3848 299.134 90.3848C298.598 90.3848 297.28 90.5187 296.488 91.7865L291.464 99.8153" fill="#266DF0"/>
<path d="M310.603 105.889L301.778 91.7865C300.986 90.5175 299.668 90.3848 299.134 90.3848C298.598 90.3848 297.28 90.5187 296.488 91.7865L291.464 99.8153" stroke="#6B9FFF" stroke-width="1.17687" stroke-miterlimit="10"/>
<path d="M286.833 147.511L296.507 162.967C297.291 164.225 298.532 164.359 299.029 164.359C299.524 164.359 300.757 164.225 301.55 162.967L312.723 145.317" fill="#266DF0"/>
<path d="M286.833 147.511L296.507 162.967C297.291 164.225 298.532 164.359 299.029 164.359C299.524 164.359 300.757 164.225 301.55 162.967L312.723 145.317" stroke="#6B9FFF" stroke-width="1.17687" stroke-miterlimit="10"/>
<path d="M51.1741 273.744L15.2148 216.816L131.31 28.5889H210.419L245.864 88.0826L125.145 273.744H51.1741Z" fill="#266DF0"/>
<path d="M135.593 268.443L133.303 272.116C131.753 274.587 129.599 276.625 127.044 278.038C124.489 279.451 121.617 280.194 118.696 280.195H57.2914C54.3708 280.193 51.4986 279.451 48.9439 278.038C46.3891 276.625 44.2357 274.587 42.6853 272.116L26.8328 246.778L13.1941 224.982C11.5688 222.401 10.674 219.428 10.605 216.38" fill="#266DF0"/>
<path d="M135.593 268.443L133.303 272.116C131.753 274.587 129.599 276.625 127.044 278.038C124.489 279.451 121.617 280.194 118.696 280.195H57.2914C54.3708 280.193 51.4986 279.451 48.9439 278.038C46.3891 276.625 44.2357 274.587 42.6853 272.116L26.8329 246.778L13.1941 224.982C11.5688 222.401 10.674 219.428 10.605 216.38" stroke="#6B9FFF" stroke-width="1.17687" stroke-miterlimit="10"/>
<path d="M10.6039 216.38C10.4867 212.994 11.3885 209.65 13.193 206.781L123.187 31.0277C124.733 28.5551 126.884 26.516 129.438 25.1024C131.991 23.6888 134.863 22.9471 137.782 22.9473H199.197C205.134 22.9473 210.659 25.9999 213.805 31.0277L216.116 34.7337" fill="#266DF0"/>
<path d="M10.6039 216.38C10.4867 212.994 11.3885 209.65 13.193 206.781L123.187 31.0277C124.733 28.5551 126.884 26.516 129.438 25.1024C131.991 23.6888 134.863 22.9471 137.782 22.9473H199.197C205.134 22.9473 210.659 25.9999 213.805 31.0277L216.116 34.7337" stroke="#6B9FFF" stroke-width="1.17687" stroke-miterlimit="10"/>
<path d="M216.115 34.7344L228.587 54.6565L243.294 78.1494C245.005 80.8798 245.912 84.0353 245.912 87.2557C245.912 90.4761 245.005 93.6316 243.294 96.3619L150.831 244.095L135.646 268.356L135.591 268.445" fill="#266DF0"/>
<path d="M216.115 34.7344L228.587 54.6565L243.294 78.1494C245.005 80.8798 245.912 84.0353 245.912 87.2557C245.912 90.4761 245.005 93.6316 243.294 96.3619L150.831 244.095L135.646 268.356L135.591 268.445" stroke="#6B9FFF" stroke-width="1.17687" stroke-miterlimit="10"/>
<path d="M127.319 262.705C126.641 262.705 124.963 262.517 123.885 260.807L110.633 239.621L100.53 223.839L98.6513 220.854C97.4839 218.989 96.8272 216.847 96.7836 214.694C96.6994 212.248 97.3498 209.832 98.6513 207.757L148.073 128.792L203.097 40.8047C204.175 39.0728 205.876 38.8848 206.554 38.8848C207.232 38.8848 208.934 39.0728 210.012 40.793L210.812 42.0702L235.278 80.7042C236.498 82.6727 237.145 84.942 237.145 87.2572C237.145 89.5724 236.498 91.8417 235.278 93.8101L130.821 260.707L130.776 260.796C129.698 262.517 128.019 262.694 127.341 262.694L127.319 262.705Z" fill="#266DF0" stroke="#6B9FFF" stroke-width="1.17687" stroke-miterlimit="10"/>
<path d="M58.541 38.0813C59.5363 38.0813 60.5218 37.8855 61.4413 37.5053C62.3609 37.125 63.1964 36.5676 63.9002 35.8649C64.6039 35.1623 65.1622 34.3281 65.5431 33.41C65.924 32.492 66.12 31.508 66.12 30.5143C66.12 29.5206 65.924 28.5366 65.5431 27.6185C65.1622 26.7004 64.6039 25.8663 63.9002 25.1636C63.1964 24.4609 62.3609 23.9035 61.4413 23.5233C60.5218 23.143 59.5363 22.9473 58.541 22.9473C56.5309 22.9473 54.6031 23.7445 53.1818 25.1636C51.7604 26.5827 50.9619 28.5074 50.9619 30.5143C50.9619 32.5212 51.7604 34.4459 53.1818 35.8649C54.6031 37.284 56.5309 38.0813 58.541 38.0813ZM33.6466 38.0813C34.6419 38.0813 35.6275 37.8855 36.547 37.5053C37.4665 37.125 38.302 36.5676 39.0058 35.8649C39.7096 35.1623 40.2679 34.3281 40.6487 33.41C41.0296 32.492 41.2257 31.508 41.2257 30.5143C41.2257 29.5206 41.0296 28.5366 40.6487 27.6185C40.2679 26.7004 39.7096 25.8663 39.0058 25.1636C38.302 24.4609 37.4665 23.9035 36.547 23.5233C35.6275 23.143 34.6419 22.9473 33.6466 22.9473C31.6365 22.9473 29.7088 23.7445 28.2874 25.1636C26.8661 26.5827 26.0676 28.5074 26.0676 30.5143C26.0676 32.5212 26.8661 34.4459 28.2874 35.8649C29.7088 37.284 31.6365 38.0813 33.6466 38.0813ZM8.75581 38.0824C10.7659 38.0824 12.6937 37.2852 14.115 35.8661C15.5363 34.447 16.3349 32.5223 16.3349 30.5154C16.3349 28.5085 15.5363 26.5839 14.115 25.1648C12.6937 23.7457 10.7659 22.9484 8.75581 22.9484C6.74572 22.9484 4.81796 23.7457 3.39661 25.1648C1.97526 26.5839 1.17676 28.5085 1.17676 30.5154C1.17676 32.5223 1.97526 34.447 3.39661 35.8661C4.81796 37.2852 6.74572 38.0824 8.75581 38.0824Z" fill="#266DF0" stroke="#6B9FFF" stroke-width="0.941497" stroke-miterlimit="10"/>
<path d="M303.057 247.726L294.472 268.675C292.4 272.785 286.593 272.985 284.252 269.018L263.51 226.454C261.398 222.888 264.703 218.568 268.704 219.655L314.947 231.822C318.825 232.87 319.102 238.248 315.367 239.708L303.076 247.726H303.057Z" fill="#266DF0" stroke="#6B9FFF" stroke-width="0.941497" stroke-linejoin="round"/>
<path d="M255.381 198.191V210.491C255.382 212.309 255.817 214.1 256.651 215.717L283.602 267.942L283.077 245.067L255.381 198.191ZM303.057 229.438V247.726L294.166 269.21L293.593 248.194L303.057 229.438Z" fill="#266DF0" stroke="#6B9FFF" stroke-width="0.941497" stroke-linejoin="round"/>
<path d="M332.948 215.917L330.962 232.374C330.834 233.422 330.435 234.418 329.804 235.264C329.172 236.111 328.33 236.778 327.362 237.2L303.056 247.716V229.428L332.948 215.917Z" fill="#266DF0" stroke="#6B9FFF" stroke-width="0.941497" stroke-linejoin="round"/>
<path d="M303.057 229.439L294.471 246.496C292.399 250.606 286.592 250.806 284.252 246.841L256.04 199.117C253.93 195.551 257.235 191.231 261.236 192.318L329.884 210.96C333.762 212.008 334.039 217.386 330.304 218.845L303.057 229.439Z" fill="#266DF0" stroke="#6B9FFF" stroke-width="0.941497" stroke-linejoin="round"/>
</g>
</svg>
