<svg width="291" height="150" viewBox="0 0 291 150" fill="none" xmlns="http://www.w3.org/2000/svg">
<path d="M286.208 32H4.29199V120H286.208V32Z" stroke="#505967" stroke-width="0.5" stroke-linecap="round" stroke-dasharray="4 4"/>
<path d="M7.32317 27H2.27091C1.15479 27 0.25 27.8954 0.25 29V34C0.25 35.1046 1.15479 36 2.27091 36H7.32317C8.43929 36 9.34408 35.1046 9.34408 34V29C9.34408 27.8954 8.43929 27 7.32317 27Z" fill="#26282D" stroke="#505967" stroke-width="0.5"/>
<path d="M288.229 27H283.177C282.061 27 281.156 27.8954 281.156 29V34C281.156 35.1046 282.061 36 283.177 36H288.229C289.345 36 290.25 35.1046 290.25 34V29C290.25 27.8954 289.345 27 288.229 27Z" fill="#26282D" stroke="#505967" stroke-width="0.5"/>
<path d="M7.32317 115H2.27091C1.15479 115 0.25 115.895 0.25 117V122C0.25 123.105 1.15479 124 2.27091 124H7.32317C8.43929 124 9.34408 123.105 9.34408 122V117C9.34408 115.895 8.43929 115 7.32317 115Z" fill="#26282D" stroke="#505967" stroke-width="0.5"/>
<path d="M288.229 115H283.177C282.061 115 281.156 115.895 281.156 117V122C281.156 123.105 282.061 124 283.177 124H288.229C289.345 124 290.25 123.105 290.25 122V117C290.25 115.895 289.345 115 288.229 115Z" fill="#26282D" stroke="#505967" stroke-width="0.5"/>
<path d="M231.981 99H59.1936C55.8452 99 53.1309 101.686 53.1309 105V127C53.1309 130.314 55.8452 133 59.1936 133H231.981C235.329 133 238.044 130.314 238.044 127V105C238.044 101.686 235.329 99 231.981 99Z" fill="#26282D"/>
<path d="M231.981 99.25H59.1939C55.9851 99.25 53.3838 101.824 53.3838 105V127C53.3838 130.176 55.9851 132.75 59.1939 132.75H231.981C235.19 132.75 237.791 130.176 237.791 127V105C237.791 101.824 235.19 99.25 231.981 99.25Z" stroke="#505967" stroke-width="0.5"/>
<path d="M227.396 112.98L220.846 119.462" stroke="#6B9FFF" stroke-width="0.933332" stroke-linecap="round" stroke-linejoin="round"/>
<path d="M220.846 112.98L227.396 119.462" stroke="#6B9FFF" stroke-width="0.933332" stroke-linecap="round" stroke-linejoin="round"/>
<path d="M172.365 113H86.4762C84.802 113 83.4448 114.343 83.4448 116C83.4448 117.657 84.802 119 86.4762 119H172.365C174.039 119 175.396 117.657 175.396 116C175.396 114.343 174.039 113 172.365 113Z" fill="#505967"/>
<path fill-rule="evenodd" clip-rule="evenodd" d="M69.3 122C72.6484 122 75.3627 119.314 75.3627 116C75.3627 112.686 72.6484 110 69.3 110C65.9517 110 63.2373 112.686 63.2373 116C63.2373 119.314 65.9517 122 69.3 122ZM72.7367 114.444C72.9847 114.222 73.0035 113.842 72.7786 113.597C72.5537 113.351 72.1703 113.333 71.9222 113.556L67.8853 117.178L66.6885 116.031C66.448 115.8 66.0642 115.806 65.8312 116.044C65.5983 116.282 65.6044 116.662 65.8449 116.893L67.4498 118.431C67.6793 118.651 68.042 118.657 68.2788 118.444L72.7367 114.444Z" fill="#6F7988"/>
<path d="M231.981 17H177.417C174.068 17 171.354 19.6863 171.354 23V45C171.354 48.3137 174.068 51 177.417 51H231.981C235.33 51 238.044 48.3137 238.044 45V23C238.044 19.6863 235.33 17 231.981 17Z" fill="#26282D"/>
<path d="M231.981 17.25H177.417C174.208 17.25 171.606 19.8244 171.606 23V45C171.606 48.1756 174.208 50.75 177.417 50.75H231.981C235.19 50.75 237.791 48.1756 237.791 45V23C237.791 19.8244 235.19 17.25 231.981 17.25Z" stroke="#505967" stroke-width="0.5"/>
<path d="M226.554 33.0186L224.122 35.426L221.688 33.0186" stroke="#6B9FFF" stroke-width="1.08333" stroke-linecap="round" stroke-linejoin="round"/>
<path d="M206.72 31H184.49C182.816 31 181.458 32.3431 181.458 34C181.458 35.6569 182.816 37 184.49 37H206.72C208.394 37 209.751 35.6569 209.751 34C209.751 32.3431 208.394 31 206.72 31Z" fill="#505967"/>
<path d="M158.218 17H59.1936C55.8452 17 53.1309 19.6863 53.1309 23V45C53.1309 48.3137 55.8452 51 59.1936 51H158.218C161.566 51 164.281 48.3137 164.281 45V23C164.281 19.6863 161.566 17 158.218 17Z" fill="#26282D"/>
<path d="M158.218 17.25H59.1939C55.9851 17.25 53.3838 19.8244 53.3838 23V45C53.3838 48.1756 55.9851 50.75 59.1939 50.75H158.218C161.427 50.75 164.028 48.1756 164.028 45V23C164.028 19.8244 161.427 17.25 158.218 17.25Z" stroke="#505967" stroke-width="0.5"/>
<path d="M147.739 33.0186L145.307 35.426L142.874 33.0186" stroke="#6B9FFF" stroke-width="1.08333" stroke-linecap="round" stroke-linejoin="round"/>
<path d="M65.2563 34.5374L70.0506 29.167V33.4633H73.1662L68.0297 38.8337V34.5374H65.2563Z" fill="#6F7988" stroke="#6F7988" stroke-width="1.2" stroke-linecap="round" stroke-linejoin="round"/>
<path d="M113.758 58H59.1936C55.8452 58 53.1309 60.6863 53.1309 64V86C53.1309 89.3137 55.8452 92 59.1936 92H113.758C117.106 92 119.821 89.3137 119.821 86V64C119.821 60.6863 117.106 58 113.758 58Z" fill="#26282D"/>
<path d="M113.758 58.25H59.1939C55.9851 58.25 53.3838 60.8244 53.3838 64V86C53.3838 89.1756 55.9851 91.75 59.1939 91.75H113.758C116.967 91.75 119.568 89.1756 119.568 86V64C119.568 60.8244 116.967 58.25 113.758 58.25Z" stroke="#505967" stroke-width="0.5"/>
<path d="M66.7732 74.5003L64.4155 72.3337L66.7732 70.167" stroke="#6B9FFF" stroke-width="1.2" stroke-linecap="round" stroke-linejoin="round"/>
<path d="M64.4155 72.333H71.4887" stroke="#6B9FFF" stroke-width="1.2" stroke-linecap="round" stroke-linejoin="round"/>
<path d="M71.8242 75.5L74.1819 77.6667L71.8242 79.8333" stroke="#6B9FFF" stroke-width="1.2" stroke-linecap="round" stroke-linejoin="round"/>
<path d="M74.1806 77.667H67.1074" stroke="#6B9FFF" stroke-width="1.2" stroke-linecap="round" stroke-linejoin="round"/>
<path d="M102.643 72H86.4762C84.802 72 83.4448 73.3431 83.4448 75C83.4448 76.6569 84.802 78 86.4762 78H102.643C104.318 78 105.675 76.6569 105.675 75C105.675 73.3431 104.318 72 102.643 72Z" fill="#505967"/>
<path d="M231.981 58H132.957C129.608 58 126.894 60.6863 126.894 64V86C126.894 89.3137 129.608 92 132.957 92H231.981C235.329 92 238.044 89.3137 238.044 86V64C238.044 60.6863 235.329 58 231.981 58Z" fill="#26282D"/>
<path d="M231.981 58.25H132.957C129.748 58.25 127.146 60.8244 127.146 64V86C127.146 89.1756 129.748 91.75 132.957 91.75H231.981C235.19 91.75 237.791 89.1756 237.791 86V64C237.791 60.8244 235.19 58.25 231.981 58.25Z" stroke="#505967" stroke-width="0.5"/>
<path d="M226.554 74.0186L224.122 76.426L221.688 74.0186" stroke="#6B9FFF" stroke-width="1.08333" stroke-linecap="round" stroke-linejoin="round"/>
<path d="M196.615 72H159.229C157.554 72 156.197 73.3431 156.197 75C156.197 76.6569 157.554 78 159.229 78H196.615C198.29 78 199.647 76.6569 199.647 75C199.647 73.3431 198.29 72 196.615 72Z" fill="#505967"/>
<path d="M144.239 72.3337C144.239 73.5303 143.258 74.5003 142.05 74.5003C140.84 74.5003 139.86 73.5303 139.86 72.3337C139.86 71.137 140.84 70.167 142.05 70.167C143.258 70.167 144.239 71.137 144.239 72.3337Z" fill="#6F7988" stroke="#6F7988" stroke-width="1.2" stroke-linecap="round" stroke-linejoin="round"/>
<path d="M138.579 79.833H145.52C146.29 79.833 146.882 79.1784 146.523 78.5053C145.995 77.515 144.789 76.333 142.05 76.333C139.31 76.333 138.104 77.515 137.576 78.5053C137.217 79.1784 137.809 79.833 138.579 79.833Z" fill="#6F7988" stroke="#6F7988" stroke-width="1.2" stroke-linecap="round" stroke-linejoin="round"/>
</svg>
