<svg width="13" height="21" viewBox="0 0 13 21" fill="none" xmlns="http://www.w3.org/2000/svg">
<path d="M1.66389 20.25H3.37943C3.53613 20.25 3.63943 20.1274 3.63943 19.9438V19.8205L2.23554 15.3411C2.21119 15.2847 2.1739 15.2375 2.12793 15.205C2.08196 15.1724 2.02916 15.1557 1.97554 15.1568H0.260001C0.103884 15.2185 0 15.3418 0 15.4637V15.587L1.40389 20.0664C1.45612 20.189 1.56001 20.25 1.66389 20.25ZM8.73499 0.368493L10.1395 4.84795C10.1911 4.97123 10.295 5.03219 10.3989 5.03219H12.115C12.2705 5.03219 12.375 4.9089 12.375 4.72534V4.60205L10.9705 0.122603C10.8995 0.0459775 10.8073 0.00240822 10.7111 0H8.99499C8.83887 0 8.73499 0.123288 8.73499 0.306849V0.368493ZM4.83497 20.25H6.55109C6.70779 20.25 6.8111 20.1274 6.8111 19.9438V19.8205L3.84778 10.3096C3.82351 10.2531 3.78625 10.2058 3.74028 10.1731C3.6943 10.1404 3.64145 10.1236 3.58778 10.1247H1.87166C1.71554 10.1247 1.61166 10.2479 1.61166 10.4322V10.5548L4.57555 20.0664C4.62778 20.189 4.73109 20.25 4.83497 20.25ZM8.21498 20.25H9.93111C10.0872 20.25 10.1911 20.1274 10.1911 19.9438V19.8822L4.05555 0.184247C4.05555 0.0609589 3.95109 0 3.84778 0H2.07943C1.97496 0 1.87108 0.123288 1.87108 0.306849V0.430137L8.00664 20.0664C8.05887 20.189 8.11168 20.25 8.21498 20.25ZM8.52722 10.1253H10.2428C10.3995 10.1253 10.5028 10.0021 10.5028 9.81849V9.69521L7.53945 0.184932C7.51509 0.128553 7.4778 0.0813856 7.43183 0.0488089C7.38586 0.0162321 7.33306 -0.000442881 7.27945 0.000685045H5.56332C5.40721 0.000685045 5.30332 0.123973 5.30332 0.307534V0.430822L8.31887 9.94178C8.3711 10.0651 8.42333 10.126 8.52722 10.126V10.1253Z" fill="#244AE5"/>
</svg>
