<svg width="17" height="13" viewBox="0 0 17 13" fill="none" xmlns="http://www.w3.org/2000/svg">
<path d="M1.15129 12.3749H3.83575V6.00184L0 3.18994V11.2502C0 11.8717 0.515429 12.3749 1.15129 12.3749Z" fill="#4285F4"/>
<path d="M13.0396 12.3749H15.7241C15.8752 12.375 16.0249 12.346 16.1645 12.2895C16.3042 12.233 16.4311 12.1501 16.5379 12.0457C16.6448 11.9412 16.7296 11.8172 16.7874 11.6807C16.8452 11.5442 16.8749 11.3979 16.8748 11.2502V3.18994L13.0391 6.00184L13.0396 12.3749Z" fill="#34A853"/>
<path d="M13.04 1.12728V6.00125L16.8752 3.18935V1.69078C16.8752 0.300452 15.2519 -0.493464 14.1137 0.340622L13.04 1.1284V1.12728Z" fill="#FBBC04"/>
<path d="M3.83594 6.0014V1.12744L8.43826 4.50117L13.0406 1.12744V6.00085L8.43826 9.37457L3.83594 6.00085V6.0014Z" fill="#EA4335"/>
<path d="M0.000570754 1.69033V3.18945L3.83632 6.00135V1.12739L2.76151 0.340728C1.62334 -0.493915 0.000570754 0.3 0.000570754 1.69033Z" fill="#C5221F"/>
</svg>
