<svg width="18" height="18" viewBox="0 0 18 18" fill="none" xmlns="http://www.w3.org/2000/svg">
<path d="M5.94168 0H17.6818C17.8577 0 17.9998 0.1427 17.9998 0.319018V12.0582C17.9998 12.2345 17.8577 12.3765 17.6818 12.3765H5.62305V0.319018C5.62305 0.143386 5.76579 0 5.94168 0Z" fill="#CAF23A"/>
<path d="M0.317959 12.3765H5.62382V17.6818C5.62382 17.8581 5.48175 18.0001 5.30518 18.0001H0.317959C0.276471 18.0004 0.235335 17.9924 0.196903 17.9765C0.15847 17.9607 0.123492 17.9373 0.0939668 17.9077C0.0644414 17.8782 0.0409466 17.843 0.0248237 17.8042C0.00870081 17.7655 0.000265667 17.7238 0 17.6818V12.6955C0 12.5192 0.142067 12.3765 0.317959 12.3765Z" fill="#4FC26B"/>
</svg>
