<svg width="90" height="36" viewBox="0 0 90 36" fill="none" xmlns="http://www.w3.org/2000/svg">
<g clip-path="url(#clip0_816_29299)">
<path d="M73.5961 5.49388H69.896V9.19395H73.5961V5.49388Z" fill="#1D1F20"/>
<path fill-rule="evenodd" clip-rule="evenodd" d="M59.1924 14.994H55.9431V21.0065C55.9431 21.5077 56.0676 21.8743 56.3182 22.1047C56.5687 22.3368 56.9354 22.4714 57.4164 22.5101C57.8974 22.5285 58.4962 22.5202 59.2092 22.4815V25.8637C56.6848 26.1529 54.8836 25.9208 53.8038 25.1707C52.7443 24.4004 52.2145 23.0129 52.2145 21.0081V14.9956H49.7002V11.4099H52.2145V8.4903L55.9431 7.36348V11.4116H61.7067V8.49199L65.4353 7.36515V11.4133H68.7015V14.999H65.4353V21.0116C65.4353 21.5128 65.5598 21.8794 65.8105 22.1098C66.061 22.3419 66.4277 22.4764 66.9086 22.5151C67.3897 22.5337 67.9884 22.5252 68.6998 22.4865V25.8687C66.1754 26.158 64.3742 25.9258 63.2944 25.1758C62.2349 24.4055 61.7051 23.0179 61.7051 21.0132V15.0007H59.1908L59.1924 14.994Z" fill="#1D1F20"/>
<path d="M73.6139 11.4064H69.8853V25.8618H73.6139V11.4064Z" fill="#1D1F20"/>
<path fill-rule="evenodd" clip-rule="evenodd" d="M82.3988 11.0312C78.2009 11.0312 74.7969 14.4352 74.7969 18.6347C74.7969 22.8343 78.2009 26.2383 82.3988 26.2383C86.5967 26.2383 90.0011 22.8343 90.0011 18.6347C90.0011 14.4352 86.5983 11.0312 82.3988 11.0312ZM82.3853 22.6543C80.1585 22.6543 78.3523 20.848 78.3523 18.6213C78.3523 16.3945 80.1585 14.5882 82.3853 14.5882C84.6121 14.5882 86.4167 16.3928 86.4167 18.6213C86.4167 20.8497 84.6121 22.6543 82.3853 22.6543Z" fill="#1D1F20"/>
<path fill-rule="evenodd" clip-rule="evenodd" d="M44.8124 11.3777V12.1798C43.6469 11.4533 42.2712 11.0312 40.7963 11.0312C36.5984 11.0312 33.1943 14.4352 33.1943 18.6347C33.1943 22.8343 36.5984 26.2383 40.7963 26.2383C42.2712 26.2383 43.6469 25.8178 44.8124 25.0896V25.8919H48.5125V11.3777H44.8124ZM40.7828 22.6543C38.556 22.6543 36.7498 20.848 36.7498 18.6213C36.7498 16.3945 38.556 14.5882 40.7828 14.5882C43.0096 14.5882 44.7772 16.3575 44.8124 18.554V18.6868C44.7772 20.8834 42.9877 22.6526 40.7828 22.6526V22.6543Z" fill="#1D1F20"/>
<path d="M26.7784 20.1255L24.5179 16.5079C24.5179 16.5079 24.5096 16.4928 24.5045 16.486L24.3262 16.2018C23.9899 15.662 23.408 15.3391 22.7722 15.3374L19.1311 15.3256L18.8771 15.7326L14.5262 22.6954L14.2856 23.0805L16.1088 25.9934C16.4452 26.5351 17.027 26.8579 17.6678 26.8579H22.7706C23.3996 26.8579 23.9949 26.5266 24.3279 25.9952L24.5078 25.7076C24.5078 25.7076 24.5146 25.6991 24.5163 25.6958L26.78 22.0731C27.1517 21.4811 27.1517 20.7158 26.78 20.1255H26.7784ZM26.0888 21.6409L23.825 25.2635C23.8149 25.2804 23.8031 25.2938 23.7931 25.3073C23.714 25.3964 23.6114 25.4082 23.5661 25.4082C23.5139 25.4082 23.3861 25.3931 23.3036 25.2618L21.04 21.6392C21.0147 21.5988 20.9928 21.5568 20.9726 21.5114C20.9525 21.4676 20.9374 21.424 20.9239 21.3785C20.8735 21.1969 20.8735 21.0018 20.9239 20.8202C20.9492 20.7311 20.9878 20.6419 21.0383 20.5611L23.2986 16.9419C23.2986 16.9419 23.302 16.9368 23.3036 16.9334C23.3575 16.8527 23.4248 16.8157 23.4836 16.8039C23.5072 16.7972 23.5274 16.7955 23.5442 16.7922C23.5526 16.7922 23.561 16.7922 23.5694 16.7922C23.6215 16.7922 23.751 16.8089 23.8318 16.9402L26.0921 20.5578C26.299 20.8874 26.299 21.3113 26.0921 21.6409H26.0888Z" fill="#1D1F20"/>
<path d="M20.0895 11.3722C20.4595 10.7785 20.4595 10.0149 20.0895 9.42462L17.8291 5.807L17.6407 5.50258C17.3027 4.96272 16.7208 4.6398 16.0816 4.6398H10.979C10.3416 4.6398 9.75969 4.96272 9.41994 5.50426L0.282548 20.1278C0.0992286 20.4205 0 20.7585 0 21.1016C0 21.4447 0.0975465 21.7827 0.280867 22.0737L2.7313 25.9974C3.06934 26.5389 3.65126 26.8601 4.28867 26.8601H9.39132C10.0321 26.8601 10.6141 26.5373 10.9504 25.9957L11.1371 25.6997C11.1371 25.6997 11.1371 25.6997 11.1371 25.6963L11.1405 25.6896L12.9619 22.7767L18.3605 14.1371L20.0861 11.3738L20.0895 11.3722ZM19.5564 10.3984C19.5564 10.5851 19.5043 10.7735 19.3982 10.94L10.4476 25.2658C10.3668 25.3953 10.2373 25.4104 10.1852 25.4104C10.133 25.4104 10.0052 25.3953 9.92286 25.2658L7.66075 21.6415C7.45556 21.3135 7.45556 20.8913 7.66075 20.56L16.6115 6.23754C16.6922 6.10636 16.8217 6.09123 16.8738 6.09123C16.9259 6.09123 17.0555 6.10636 17.1379 6.23922L19.3982 9.85689C19.5043 10.0234 19.5564 10.2117 19.5564 10.3984Z" fill="#1D1F20"/>
</g>
<defs>
<clipPath id="clip0_816_29299">
<rect width="90" height="36" fill="white"/>
</clipPath>
</defs>
</svg>
