<svg width="20" height="17" viewBox="0 0 20 17" fill="none" xmlns="http://www.w3.org/2000/svg">
<path d="M19.1221 8.86044C19.1226 8.79071 19.1042 8.72204 19.0686 8.66105C19.0329 8.60006 18.9813 8.54882 18.9187 8.51229H18.9163L18.9085 8.50773L12.2812 4.78714C12.1344 4.69339 11.9614 4.64331 11.7845 4.64331C11.6075 4.64331 11.4345 4.69339 11.2877 4.78714L4.66107 8.5083L4.65325 8.51229C4.59012 8.54961 4.53821 8.60175 4.50256 8.66367C4.46691 8.72559 4.44872 8.79519 4.44975 8.86574C4.45078 8.93629 4.47099 9.00539 4.50843 9.06635C4.54588 9.12731 4.59928 9.17807 4.66347 9.21372L11.2902 12.9343C11.437 13.0281 11.6099 13.0781 11.7869 13.0781C11.9638 13.0781 12.1368 13.0281 12.2836 12.9343L18.9103 9.21315C18.9753 9.17721 19.0291 9.1256 19.0663 9.06356C19.1035 9.00151 19.1228 8.93181 19.1221 8.86044Z" fill="#0A2767"/>
<path d="M5.43436 6.37447H9.78295V10.1556H5.43436V6.37447ZM18.2334 2.53118V0.801874C18.2386 0.594128 18.1566 0.392942 18.0053 0.242565C17.8541 0.0921888 17.6462 0.00493673 17.4271 0H6.14198C5.92295 0.00493673 5.71497 0.0921888 5.56376 0.242565C5.41255 0.392942 5.33051 0.594128 5.33568 0.801874V2.53118L12.0069 4.21826L18.2334 2.53118Z" fill="#0364B8"/>
<path d="M5.33789 2.53101H9.78576V6.32749H5.33789V2.53101Z" fill="#0078D4"/>
<path d="M14.2323 2.53101H9.78564V6.32749L14.2323 10.124H18.2355V6.32749L14.2329 2.53101H14.2323Z" fill="#28A8EA"/>
<path d="M9.78564 6.32861H14.2335V10.1251H9.78564V6.32861Z" fill="#0078D4"/>
<path d="M9.78564 10.124H14.2335V13.9205H9.78564V10.124Z" fill="#0364B8"/>
<path d="M5.4375 10.155H9.78609V13.592H5.4375V10.1556V10.155Z" fill="#14447D"/>
<path d="M14.2329 10.124H18.2355V13.9205H14.2329V10.124Z" fill="#0078D4"/>
<path d="M18.9203 9.19007L18.9119 9.19407L12.2852 12.7292C12.1502 12.8088 11.9958 12.854 11.8369 12.8604L11.4747 12.6601C11.4446 12.6453 11.4145 12.6293 11.3856 12.6116L4.6705 8.97605H4.66689L4.44727 8.85962V16.016C4.45088 16.4931 4.86124 16.8778 5.36488 16.8749H18.2205C18.2283 16.8749 18.235 16.8715 18.2428 16.8715C18.3493 16.8652 18.454 16.8441 18.5545 16.8099C18.5978 16.7928 18.6393 16.7716 18.6796 16.7482C18.8146 16.6735 18.9267 16.5666 19.0048 16.4382C19.0829 16.3098 19.1243 16.1642 19.1249 16.016V8.85962C19.1237 8.99659 19.0461 9.12273 18.9203 9.19007Z" fill="url(#paint0_linear_819_62859)"/>
<path opacity="0.5" d="M18.7679 8.82957V9.26846L11.8386 13.7932L4.66493 8.97738L4.6648 8.97568L4.66393 8.97418L4.66248 8.97317L4.66072 8.97282L4.00244 8.59728V8.28109L4.27321 8.2771L4.84725 8.58929L4.86049 8.59328L4.90983 8.62296C4.90983 8.62296 11.652 12.2716 11.6701 12.2802L11.9276 12.4234C11.951 12.4144 11.9747 12.406 11.9986 12.3983C12.0125 12.3898 18.6927 8.82557 18.6927 8.82557L18.7679 8.82957Z" fill="#0A2767"/>
<path d="M18.9203 9.19007L18.9119 9.19464L12.2852 12.7297C12.1366 12.8189 11.9643 12.8663 11.7885 12.8663C11.6126 12.8663 11.4404 12.8189 11.2918 12.7297L4.66448 9.19464L4.65666 9.19007C4.59382 9.15775 4.54126 9.11006 4.50443 9.05194C4.46761 8.99383 4.44787 8.92742 4.44727 8.85962V16.016C4.45027 16.4931 4.86125 16.8778 5.36428 16.8749H18.2067C18.3264 16.8758 18.4451 16.8542 18.5561 16.8115C18.667 16.7687 18.768 16.7057 18.8532 16.6259C18.9384 16.5461 19.0062 16.4512 19.0528 16.3465C19.0993 16.2419 19.1236 16.1296 19.1243 16.016V8.85962C19.1243 8.99659 19.0461 9.12273 18.9203 9.19007Z" fill="#1490DF"/>
<path opacity="0.1" d="M12.3802 12.6772L12.2809 12.7303C12.1492 12.81 11.9982 12.8565 11.8423 12.8656L14.3635 15.6935L18.762 16.6986C18.8823 16.613 18.9786 16.4988 19.0406 16.3687L12.3796 12.6772H12.3802Z" fill="black"/>
<path opacity="0.05" d="M12.8291 12.4358L12.2809 12.728C12.1492 12.8076 11.9982 12.8542 11.8423 12.8633L13.0235 15.9526L18.7632 16.6957C18.9894 16.5348 19.1224 16.2819 19.1224 16.0137V15.9212L12.8291 12.4358Z" fill="black"/>
<path d="M5.37691 16.8749H18.2055C18.4028 16.8755 18.5954 16.8167 18.7548 16.706L11.4741 12.6607C11.444 12.6464 11.4139 12.6304 11.3856 12.6122L4.6699 8.97662H4.66629L4.44727 8.85962V15.9914C4.44727 16.4789 4.86245 16.8744 5.37691 16.8749Z" fill="#28A8EA"/>
<path opacity="0.1" d="M10.6738 4.14785V13.1465C10.6734 13.3008 10.6246 13.4515 10.5335 13.5792C10.4424 13.707 10.3132 13.8062 10.1623 13.8639C10.0667 13.9027 9.96378 13.9227 9.85969 13.9227H4.44727V3.79685H5.3366V3.37451H9.85969C10.0756 3.37527 10.2824 3.45702 10.4349 3.60192C10.5874 3.74682 10.6733 3.94308 10.6738 4.14785Z" fill="black"/>
<path opacity="0.2" d="M10.2291 4.57098V13.5685C10.2303 13.6707 10.2075 13.7717 10.1623 13.8642C10.1019 14.0053 9.99857 14.1262 9.86551 14.2116C9.73245 14.297 9.57565 14.3429 9.41502 14.3436H4.44727V3.79764H9.41502C9.54439 3.7965 9.67135 3.82675 9.78447 3.8861C10.0571 4.01623 10.2291 4.28105 10.2291 4.57098Z" fill="black"/>
<path opacity="0.2" d="M10.2291 4.57098V12.725C10.2282 12.9298 10.1422 13.126 9.98983 13.271C9.83744 13.4161 9.63092 13.4984 9.41502 13.5H4.44727V3.79764H9.41502C9.54439 3.7965 9.67135 3.82675 9.78447 3.8861C10.057 4.01623 10.2291 4.28105 10.2291 4.57098Z" fill="black"/>
<path opacity="0.2" d="M9.78447 4.57095V12.7249C9.78416 12.9299 9.69838 13.1264 9.54586 13.2717C9.39333 13.4169 9.18645 13.4989 8.97035 13.5H4.44727V3.79761H8.97035C9.42044 3.79761 9.78447 4.14404 9.78447 4.57037V4.57095Z" fill="black"/>
<path d="M0.815925 3.79761H8.96916C9.41984 3.79761 9.78448 4.14347 9.78448 4.57095V12.3043C9.78448 12.7324 9.41984 13.0782 8.96976 13.0782H0.815323C0.599086 13.0782 0.391705 12.9968 0.238803 12.8517C0.0858999 12.7067 0 12.51 0 12.3049V4.57095C0 4.14347 0.365842 3.79761 0.815925 3.79761Z" fill="url(#paint1_linear_819_62859)"/>
<path d="M2.54749 7.03933C2.74841 6.63318 3.07279 6.2933 3.47894 6.06338C3.92863 5.81926 4.44064 5.6976 4.95856 5.71181C5.43864 5.70177 5.91239 5.81707 6.32806 6.04512C6.71857 6.26656 7.03327 6.59016 7.23364 6.97769C7.45206 7.40459 7.56097 7.87373 7.55135 8.34858C7.56198 8.8443 7.45008 9.33549 7.22462 9.78282C7.01921 10.184 6.69433 10.5194 6.29015 10.7474C5.85865 10.9823 5.36754 11.1008 4.87011 11.0898C4.37987 11.1013 3.89573 10.9848 3.47052 10.7531C3.07621 10.5317 2.75744 10.2074 2.5523 9.81878C2.33256 9.39799 2.22238 8.93337 2.23099 8.46387C2.22199 7.97247 2.33018 7.48549 2.54749 7.03933ZM3.54032 9.32966C3.64742 9.58649 3.82914 9.80907 4.06381 9.97173C4.30329 10.1304 4.59031 10.2126 4.88214 10.2057C5.19328 10.2174 5.49996 10.1326 5.75583 9.96431C5.98785 9.80204 6.16463 9.57881 6.26428 9.32224C6.37591 9.03554 6.43098 8.7318 6.42674 8.4262C6.43025 8.11788 6.37857 7.81123 6.27391 7.51931C6.18142 7.25577 6.01021 7.02339 5.7811 6.85041C5.53166 6.67432 5.22591 6.58504 4.91524 6.59758C4.61679 6.5902 4.32356 6.67272 4.07765 6.83329C3.83851 6.99678 3.65339 7.22146 3.54393 7.48107C3.30117 8.07573 3.29988 8.73415 3.54032 9.32966Z" fill="white"/>
<path d="M14.2329 2.53101H18.2355V6.32749H14.2329V2.53101Z" fill="#50D9FF"/>
<defs>
<linearGradient id="paint0_linear_819_62859" x1="11.7858" y1="8.85962" x2="11.7858" y2="16.8749" gradientUnits="userSpaceOnUse">
<stop stop-color="#35B8F1"/>
<stop offset="1" stop-color="#28A8EA"/>
</linearGradient>
<linearGradient id="paint1_linear_819_62859" x1="1.69984" y1="3.19321" x2="7.59179" y2="13.9525" gradientUnits="userSpaceOnUse">
<stop stop-color="#1784D9"/>
<stop offset="0.5" stop-color="#107AD5"/>
<stop offset="1" stop-color="#0A63C9"/>
</linearGradient>
</defs>
</svg>
