<svg width="292" height="150" viewBox="0 0 292 150" fill="none" xmlns="http://www.w3.org/2000/svg">
<path d="M287.198 31.5518H4.30566V120.472H287.198V31.5518Z" stroke="#505967" stroke-width="0.5" stroke-linecap="round" stroke-dasharray="4 4"/>
<path d="M7.34765 26.499H2.2779C1.15792 26.499 0.25 27.4038 0.25 28.5199V33.5722C0.25 34.6883 1.15792 35.5931 2.2779 35.5931H7.34765C8.46762 35.5931 9.37554 34.6883 9.37554 33.5722V28.5199C9.37554 27.4038 8.46762 26.499 7.34765 26.499Z" fill="#26282D" stroke="#505967" stroke-width="0.5"/>
<path d="M289.226 26.499H284.156C283.036 26.499 282.128 27.4038 282.128 28.5199V33.5722C282.128 34.6883 283.036 35.5931 284.156 35.5931H289.226C290.346 35.5931 291.253 34.6883 291.253 33.5722V28.5199C291.253 27.4038 290.346 26.499 289.226 26.499Z" fill="#26282D" stroke="#505967" stroke-width="0.5"/>
<path d="M7.34765 115.418H2.2779C1.15792 115.418 0.25 116.323 0.25 117.439V122.491C0.25 123.607 1.15792 124.512 2.2779 124.512H7.34765C8.46762 124.512 9.37554 123.607 9.37554 122.491V117.439C9.37554 116.323 8.46762 115.418 7.34765 115.418Z" fill="#26282D" stroke="#505967" stroke-width="0.5"/>
<path d="M289.226 115.418H284.156C283.036 115.418 282.128 116.323 282.128 117.439V122.491C282.128 123.607 283.036 124.512 284.156 124.512H289.226C290.346 124.512 291.253 123.607 291.253 122.491V117.439C291.253 116.323 290.346 115.418 289.226 115.418Z" fill="#26282D" stroke="#505967" stroke-width="0.5"/>
<path d="M155.385 99.252H116.855C113.495 99.252 110.771 101.966 110.771 105.315V127.545C110.771 130.893 113.495 133.607 116.855 133.607H155.385C158.745 133.607 161.468 130.893 161.468 127.545V105.315C161.468 101.966 158.745 99.252 155.385 99.252Z" fill="#26282D"/>
<path d="M155.385 99.5049H116.855C113.635 99.5049 111.024 102.106 111.024 105.315V127.545C111.024 130.754 113.635 133.355 116.855 133.355H155.385C158.605 133.355 161.215 130.754 161.215 127.545V105.315C161.215 102.106 158.605 99.5049 155.385 99.5049Z" stroke="#383E47" stroke-width="0.5"/>
<path d="M132.064 124.514H117.868C116.748 124.514 115.84 125.418 115.84 126.535C115.84 127.651 116.748 128.555 117.868 128.555H132.064C133.184 128.555 134.091 127.651 134.091 126.535C134.091 125.418 133.184 124.514 132.064 124.514Z" fill="#383E47"/>
<path d="M97.5894 99.252H59.0593C55.6993 99.252 52.9756 101.966 52.9756 105.315V127.545C52.9756 130.893 55.6993 133.607 59.0593 133.607H97.5894C100.949 133.607 103.673 130.893 103.673 127.545V105.315C103.673 101.966 100.949 99.252 97.5894 99.252Z" fill="#26282D"/>
<path d="M97.5893 99.5049H59.0592C55.8393 99.5049 53.229 102.106 53.229 105.315V127.545C53.229 130.754 55.8393 133.355 59.0592 133.355H97.5893C100.809 133.355 103.419 130.754 103.419 127.545V105.315C103.419 102.106 100.809 99.5049 97.5893 99.5049Z" stroke="#383E47" stroke-width="0.5"/>
<path d="M73.2547 124.514H60.0733C58.9533 124.514 58.0454 125.418 58.0454 126.535C58.0454 127.651 58.9533 128.555 60.0733 128.555H73.2547C74.3746 128.555 75.2826 127.651 75.2826 126.535C75.2826 125.418 74.3746 124.514 73.2547 124.514Z" fill="#383E47"/>
<path d="M90.4912 57.8223H59.0588C55.6989 57.8223 52.9751 60.5366 52.9751 63.885V86.1149C52.9751 89.4633 55.6989 92.1777 59.0588 92.1777H90.4912C93.8512 92.1777 96.5749 89.4633 96.5749 86.1149V63.885C96.5749 60.5366 93.8512 57.8223 90.4912 57.8223Z" fill="#26282D"/>
<path d="M90.4912 58.0752H59.0587C55.8388 58.0752 53.2285 60.6765 53.2285 63.8853V86.1153C53.2285 89.3241 55.8388 91.9254 59.0587 91.9254H90.4912C93.7111 91.9254 96.3214 89.3241 96.3214 86.1153V63.8853C96.3214 60.6765 93.7111 58.0752 90.4912 58.0752Z" stroke="#383E47" stroke-width="0.5"/>
<path d="M73.2542 83.083H60.0728C58.9528 83.083 58.0449 83.9878 58.0449 85.1039C58.0449 86.22 58.9528 87.1248 60.0728 87.1248H73.2542C74.3741 87.1248 75.2821 86.22 75.2821 85.1039C75.2821 83.9878 74.3741 83.083 73.2542 83.083Z" fill="#383E47"/>
<path d="M111.785 16.3945H59.0593C55.6993 16.3945 52.9756 19.1089 52.9756 22.4572V44.6872C52.9756 48.0356 55.6993 50.7499 59.0593 50.7499H111.785C115.145 50.7499 117.868 48.0356 117.868 44.6872V22.4572C117.868 19.1089 115.145 16.3945 111.785 16.3945Z" fill="#26282D"/>
<path d="M111.785 16.6475H59.0592C55.8393 16.6475 53.229 19.2487 53.229 22.4576V44.6875C53.229 47.8964 55.8393 50.4976 59.0592 50.4976H111.785C115.005 50.4976 117.615 47.8964 117.615 44.6875V22.4576C117.615 19.2487 115.005 16.6475 111.785 16.6475Z" stroke="#383E47" stroke-width="0.5"/>
<path d="M73.2547 41.6562H60.0733C58.9533 41.6562 58.0454 42.561 58.0454 43.6772C58.0454 44.7933 58.9533 45.6981 60.0733 45.6981H73.2547C74.3746 45.6981 75.2826 44.7933 75.2826 43.6772C75.2826 42.561 74.3746 41.6562 73.2547 41.6562Z" fill="#383E47"/>
<path d="M62.1012 23.4682C62.1012 22.3521 61.1933 21.4473 60.0733 21.4473C58.9533 21.4473 58.0454 22.3521 58.0454 23.4682C58.0454 24.5843 58.9533 25.4891 60.0733 25.4891C61.1933 25.4891 62.1012 24.5843 62.1012 23.4682Z" fill="#383E47"/>
<path d="M232.444 99.252H174.649C171.289 99.252 168.565 101.966 168.565 105.315V127.545C168.565 130.893 171.289 133.607 174.649 133.607H232.444C235.804 133.607 238.528 130.893 238.528 127.545V105.315C238.528 101.966 235.804 99.252 232.444 99.252Z" fill="#26282D"/>
<path d="M232.444 99.5049H174.649C171.429 99.5049 168.819 102.106 168.819 105.315V127.545C168.819 130.754 171.429 133.355 174.649 133.355H232.444C235.664 133.355 238.274 130.754 238.274 127.545V105.315C238.274 102.106 235.664 99.5049 232.444 99.5049Z" stroke="#383E47" stroke-width="0.5"/>
<path d="M190.872 124.514H175.663C174.543 124.514 173.635 125.418 173.635 126.535C173.635 127.651 174.543 128.555 175.663 128.555H190.872C191.992 128.555 192.9 127.651 192.9 126.535C192.9 125.418 191.992 124.514 190.872 124.514Z" fill="#383E47"/>
<path d="M223.304 106.411C223.304 105.797 223.804 105.3 224.42 105.3C225.036 105.3 225.535 105.797 225.535 106.411V107.523H224.42C223.804 107.523 223.304 107.025 223.304 106.411Z" stroke="#6F7988" stroke-width="1.13143" stroke-linecap="round" stroke-linejoin="round"/>
<path d="M230.315 106.411C230.315 105.797 230.815 105.3 231.43 105.3C232.047 105.3 232.546 105.797 232.546 106.411C232.546 107.025 232.047 107.523 231.43 107.523H230.315V106.411Z" stroke="#6F7988" stroke-width="1.13143" stroke-linecap="round" stroke-linejoin="round"/>
<path d="M230.315 112.287H231.43C232.047 112.287 232.546 112.784 232.546 113.399C232.546 114.012 232.047 114.51 231.43 114.51C230.815 114.51 230.315 114.012 230.315 113.399V112.287Z" stroke="#6F7988" stroke-width="1.13143" stroke-linecap="round" stroke-linejoin="round"/>
<path d="M223.304 113.399C223.304 112.784 223.804 112.287 224.42 112.287H225.535V113.399C225.535 114.012 225.036 114.51 224.42 114.51C223.804 114.51 223.304 114.012 223.304 113.399Z" stroke="#6F7988" stroke-width="1.13143" stroke-linecap="round" stroke-linejoin="round"/>
<path d="M225.535 107.523H230.315V112.287H225.535V107.523Z" stroke="#6F7988" stroke-width="1.13143" stroke-linecap="round" stroke-linejoin="round"/>
<path d="M132.063 57.8223H109.757C106.397 57.8223 103.673 60.5366 103.673 63.885V86.1149C103.673 89.4633 106.397 92.1777 109.757 92.1777H132.063C135.423 92.1777 138.147 89.4633 138.147 86.1149V63.885C138.147 60.5366 135.423 57.8223 132.063 57.8223Z" fill="#26282D"/>
<path d="M132.063 58.0752H109.756C106.537 58.0752 103.926 60.6765 103.926 63.8853V86.1153C103.926 89.3241 106.537 91.9254 109.756 91.9254H132.063C135.283 91.9254 137.894 89.3241 137.894 86.1153V63.8853C137.894 60.6765 135.283 58.0752 132.063 58.0752Z" stroke="#383E47" stroke-width="0.5"/>
<path d="M117.528 80.0519V78.9453L121.944 72.7706H117.519V71.2334H124.294V72.34L119.874 78.5147H124.303V80.0519H117.528Z" fill="#9098A0"/>
<path d="M173.635 57.8223H151.328C147.968 57.8223 145.245 60.5366 145.245 63.885V86.1149C145.245 89.4633 147.968 92.1777 151.328 92.1777H173.635C176.995 92.1777 179.719 89.4633 179.719 86.1149V63.885C179.719 60.5366 176.995 57.8223 173.635 57.8223Z" fill="#26282D"/>
<path d="M173.636 58.0752H151.329C148.109 58.0752 145.499 60.6765 145.499 63.8853V86.1153C145.499 89.3241 148.109 91.9254 151.329 91.9254H173.636C176.856 91.9254 179.466 89.3241 179.466 86.1153V63.8853C179.466 60.6765 176.856 58.0752 173.636 58.0752Z" stroke="#383E47" stroke-width="0.5"/>
<path d="M160.638 71.2334L162.587 74.4629H162.656L164.613 71.2334H166.441L163.715 75.6427L166.484 80.0519H164.626L162.656 76.844H162.587L160.617 80.0519H158.768L161.563 75.6427L158.802 71.2334H160.638Z" fill="#6B9FFF"/>
<path d="M153.356 16.3945H131.05C127.69 16.3945 124.966 19.1089 124.966 22.4572V44.6872C124.966 48.0356 127.69 50.7499 131.05 50.7499H153.356C156.716 50.7499 159.44 48.0356 159.44 44.6872V22.4572C159.44 19.1089 156.716 16.3945 153.356 16.3945Z" fill="#26282D"/>
<path d="M153.356 16.6475H131.049C127.83 16.6475 125.219 19.2487 125.219 22.4576V44.6875C125.219 47.8964 127.83 50.4976 131.049 50.4976H153.356C156.576 50.4976 159.187 47.8964 159.187 44.6875V22.4576C159.187 19.2487 156.576 16.6475 153.356 16.6475Z" stroke="#383E47" stroke-width="0.5"/>
<path d="M140.157 38.6242H138.445L141.56 29.8057H143.539L146.659 38.6242H144.948L142.584 31.6142H142.515L140.157 38.6242ZM140.213 35.1665H144.879V36.4497H140.213V35.1665Z" fill="#6B9FFF"/>
<path d="M194.928 16.3945H172.621C169.261 16.3945 166.538 19.1089 166.538 22.4572V44.6872C166.538 48.0356 169.261 50.7499 172.621 50.7499H194.928C198.288 50.7499 201.012 48.0356 201.012 44.6872V22.4572C201.012 19.1089 198.288 16.3945 194.928 16.3945Z" fill="#26282D"/>
<path d="M194.928 16.6475H172.621C169.401 16.6475 166.791 19.2487 166.791 22.4576V44.6875C166.791 47.8964 169.401 50.4976 172.621 50.4976H194.928C198.148 50.4976 200.758 47.8964 200.758 44.6875V22.4576C200.758 19.2487 198.148 16.6475 194.928 16.6475Z" stroke="#383E47" stroke-width="0.5"/>
<path d="M185.401 32.2304C185.361 31.8543 185.19 31.5615 184.891 31.352C184.594 31.1424 184.209 31.0376 183.733 31.0376C183.399 31.0376 183.113 31.0879 182.873 31.1883C182.634 31.2888 182.451 31.4251 182.325 31.5974C182.198 31.7696 182.133 31.9662 182.13 32.1873C182.13 32.371 182.172 32.5303 182.255 32.6653C182.342 32.8002 182.459 32.915 182.606 33.0097C182.752 33.1016 182.915 33.1791 183.093 33.2422C183.272 33.3054 183.452 33.3585 183.634 33.4016L184.463 33.6082C184.798 33.6857 185.118 33.7905 185.426 33.9226C185.738 34.0546 186.016 34.2211 186.261 34.422C186.508 34.623 186.704 34.8655 186.848 35.1498C186.992 35.4339 187.064 35.767 187.064 36.1487C187.064 36.6655 186.932 37.1205 186.666 37.5137C186.402 37.9041 186.019 38.2098 185.518 38.4308C185.019 38.649 184.415 38.7581 183.707 38.7581C183.018 38.7581 182.421 38.6519 181.914 38.4395C181.41 38.227 181.015 37.917 180.73 37.5094C180.448 37.1018 180.295 36.6051 180.271 36.0196H181.849C181.873 36.3267 181.967 36.5822 182.134 36.786C182.301 36.9898 182.518 37.142 182.787 37.2424C183.058 37.3429 183.36 37.3931 183.694 37.3931C184.042 37.3931 184.348 37.3414 184.61 37.2381C184.875 37.1319 185.083 36.9855 185.233 36.7989C185.382 36.6095 185.459 36.3884 185.461 36.1358C185.459 35.9062 185.391 35.7167 185.258 35.5674C185.125 35.4153 184.94 35.289 184.7 35.1885C184.464 35.0852 184.188 34.9933 183.871 34.9129L182.864 34.6545C182.136 34.468 181.559 34.1852 181.136 33.8063C180.716 33.4245 180.506 32.9179 180.506 32.2864C180.506 31.7668 180.647 31.3118 180.929 30.9213C181.213 30.531 181.602 30.2281 182.091 30.0128C182.58 29.7947 183.135 29.6855 183.754 29.6855C184.382 29.6855 184.933 29.7947 185.405 30.0128C185.881 30.2281 186.254 30.5281 186.525 30.9127C186.795 31.2945 186.934 31.7337 186.943 32.2304H185.401Z" fill="#6B9FFF"/>
</svg>
