<svg width="18" height="18" viewBox="0 0 18 18" fill="none" xmlns="http://www.w3.org/2000/svg">
<path d="M3.09097 14.0086C2.822 14.0178 2.56715 14.1292 2.38016 14.3195C2.19317 14.5097 2.08866 14.7639 2.08866 15.0284C2.08866 15.2929 2.19317 15.5471 2.38016 15.7374C2.56715 15.9276 2.822 16.0391 3.09097 16.0482C3.35994 16.0391 3.61479 15.9276 3.80178 15.7374C3.98877 15.5471 4.09328 15.2929 4.09328 15.0284C4.09328 14.7639 3.98877 14.5097 3.80178 14.3195C3.61479 14.1292 3.35994 14.0178 3.09097 14.0086ZM14.5344 1.68464C14.3289 1.6844 14.1281 1.74403 13.9571 1.85599C13.7862 1.96796 13.6528 2.12723 13.5739 2.31366C13.4951 2.5001 13.4742 2.70534 13.514 2.90342C13.5538 3.10151 13.6525 3.28356 13.7975 3.42654C13.9425 3.56953 14.1275 3.66703 14.3289 3.70673C14.5303 3.74643 14.7392 3.72655 14.9291 3.64959C15.119 3.57262 15.2814 3.44204 15.3959 3.27435C15.5103 3.10666 15.5715 2.90939 15.5719 2.70748V2.70383C15.5719 2.14127 15.1067 1.68464 14.5344 1.68464ZM7.01879 5.80461V7.05637C7.01879 7.24267 7.17241 7.39732 7.36567 7.39732H17.647C17.739 7.39732 17.8272 7.3614 17.8923 7.29746C17.9574 7.23352 17.9939 7.1468 17.9939 7.05637V5.80461C17.9932 5.71438 17.9565 5.62803 17.8916 5.56423C17.8267 5.50043 17.7388 5.4643 17.647 5.46367H7.36567C7.27392 5.46446 7.18616 5.50064 7.12128 5.5644C7.05641 5.62817 7.0196 5.71443 7.01879 5.80461ZM10.9751 11.5745V10.3264C10.9751 10.236 10.9386 10.1493 10.8735 10.0853C10.8085 10.0214 10.7202 9.98546 10.6282 9.98546H0.346882C0.254883 9.98546 0.166652 10.0214 0.101599 10.0853C0.0365463 10.1493 0 10.236 0 10.3264V11.5745C0 11.7608 0.153619 11.9155 0.346882 11.9155H10.6282C10.8215 11.9155 10.9751 11.7645 10.9751 11.5745ZM17.9152 9.89414C17.8875 9.85911 17.853 9.82987 17.8136 9.80813C17.7743 9.78638 17.7309 9.77257 17.686 9.7675L16.4236 9.64086C16.3341 9.63103 16.2442 9.65614 16.1733 9.7108C16.1024 9.76545 16.0562 9.84528 16.0445 9.9331C15.5149 13.8077 11.8838 16.5292 7.94174 16.005C7.39417 15.9313 6.85774 15.798 6.34237 15.608C6.30106 15.5917 6.25688 15.5836 6.21238 15.5842C6.16787 15.5847 6.12392 15.5939 6.08304 15.6113C6.04217 15.6286 6.00518 15.6537 5.97421 15.6851C5.94324 15.7165 5.91889 15.7536 5.90257 15.7943L5.41942 16.9438C5.40169 16.986 5.39274 17.0313 5.39308 17.077C5.39342 17.1227 5.40305 17.1679 5.4214 17.2098C5.43975 17.2518 5.46646 17.2898 5.49994 17.3214C5.53343 17.3531 5.57302 17.3779 5.61639 17.3943C10.3346 19.1837 15.6401 16.8738 17.4612 12.2357C17.7252 11.5645 17.9053 10.8643 17.9976 10.1505C18.0033 10.1044 17.9988 10.0577 17.9846 10.0135C17.9704 9.96933 17.9468 9.92862 17.9152 9.89414ZM0.0755708 7.02471C0.0508066 6.98652 0.034481 6.94365 0.0276517 6.89887C0.0208224 6.85408 0.0236417 6.80839 0.035927 6.76474C0.539926 4.8287 1.68557 3.11278 3.29202 1.88782C4.89848 0.66286 6.87424 -0.00136027 8.90744 2.09153e-06C9.93074 2.09153e-06 10.9503 0.165605 11.916 0.499245C12.095 0.555866 12.1948 0.745822 12.1378 0.921166C12.1341 0.928472 12.131 0.939431 12.1273 0.945519L11.6726 2.11326C11.6424 2.19625 11.5798 2.26404 11.4987 2.30172C11.4177 2.33939 11.3247 2.34388 11.2402 2.31417C10.488 2.06174 9.69854 1.93337 8.90372 1.93426C7.25892 1.92673 5.66229 2.47967 4.38558 3.49896C3.18866 4.452 2.33166 5.75496 1.93882 7.21893C1.91966 7.29134 1.87662 7.35547 1.81643 7.4013C1.75625 7.44712 1.68232 7.47206 1.60619 7.4722C1.58008 7.47567 1.55362 7.47567 1.52752 7.4722L0.289894 7.19397C0.198791 7.16712 0.121776 7.10669 0.0749512 7.02532L0.0755708 7.02471Z" fill="#25C365"/>
</svg>
