<svg width="291" height="150" viewBox="0 0 291 150" fill="none" xmlns="http://www.w3.org/2000/svg">
<path d="M286.208 32H4.29199V120H286.208V32Z" stroke="#505967" stroke-width="0.5" stroke-linecap="round" stroke-dasharray="4 4"/>
<path d="M7.32317 27H2.27091C1.15479 27 0.25 27.8954 0.25 29V34C0.25 35.1046 1.15479 36 2.27091 36H7.32317C8.43929 36 9.34408 35.1046 9.34408 34V29C9.34408 27.8954 8.43929 27 7.32317 27Z" fill="#26282D" stroke="#505967" stroke-width="0.5"/>
<path d="M288.229 27H283.177C282.061 27 281.156 27.8954 281.156 29V34C281.156 35.1046 282.061 36 283.177 36H288.229C289.345 36 290.25 35.1046 290.25 34V29C290.25 27.8954 289.345 27 288.229 27Z" fill="#26282D" stroke="#505967" stroke-width="0.5"/>
<path d="M7.32317 115H2.27091C1.15479 115 0.25 115.895 0.25 117V122C0.25 123.105 1.15479 124 2.27091 124H7.32317C8.43929 124 9.34408 123.105 9.34408 122V117C9.34408 115.895 8.43929 115 7.32317 115Z" fill="#26282D" stroke="#505967" stroke-width="0.5"/>
<path d="M288.229 115H283.177C282.061 115 281.156 115.895 281.156 117V122C281.156 123.105 282.061 124 283.177 124H288.229C289.345 124 290.25 123.105 290.25 122V117C290.25 115.895 289.345 115 288.229 115Z" fill="#26282D" stroke="#505967" stroke-width="0.5"/>
<path d="M232.316 17H59.529C56.1807 17 53.4663 19.6863 53.4663 23V45C53.4663 48.3137 56.1807 51 59.529 51H232.316C235.665 51 238.379 48.3137 238.379 45V23C238.379 19.6863 235.665 17 232.316 17Z" fill="#26282D"/>
<path d="M232.317 17.25H59.5293C56.3205 17.25 53.7192 19.8244 53.7192 23V45C53.7192 48.1756 56.3205 50.75 59.5293 50.75H232.317C235.526 50.75 238.127 48.1756 238.127 45V23C238.127 19.8244 235.526 17.25 232.317 17.25Z" stroke="#505967" stroke-width="0.5"/>
<path d="M125.209 31H86.8116C85.1375 31 83.7803 32.3431 83.7803 34C83.7803 35.6569 85.1375 37 86.8116 37H125.209C126.883 37 128.24 35.6569 128.24 34C128.24 32.3431 126.883 31 125.209 31Z" fill="#505967"/>
<path d="M71.8221 31.3337C71.8221 32.5303 70.8418 33.5003 69.6327 33.5003C68.4236 33.5003 67.4434 32.5303 67.4434 31.3337C67.4434 30.137 68.4236 29.167 69.6327 29.167C70.8418 29.167 71.8221 30.137 71.8221 31.3337Z" fill="#6B9FFF" stroke="#6B9FFF" stroke-width="1.2" stroke-linecap="round" stroke-linejoin="round"/>
<path d="M66.1614 38.833H73.1032C73.8725 38.833 74.465 38.1784 74.1058 37.5053C73.5774 36.515 72.3726 35.333 69.6323 35.333C66.8919 35.333 65.6873 36.515 65.1589 37.5053C64.7996 38.1784 65.3922 38.833 66.1614 38.833Z" fill="#6B9FFF" stroke="#6B9FFF" stroke-width="1.2" stroke-linecap="round" stroke-linejoin="round"/>
<path d="M202.003 31H180.784C179.11 31 177.752 32.3431 177.752 34C177.752 35.6569 179.11 37 180.784 37H202.003C203.677 37 205.035 35.6569 205.035 34C205.035 32.3431 203.677 31 202.003 31Z" fill="#505967"/>
<path d="M163.606 31.834L160.069 36.1673H167.143L163.606 31.834Z" fill="#6F7988" stroke="#6F7988" stroke-width="1.2" stroke-linecap="round" stroke-linejoin="round"/>
<path d="M146.428 21V47" stroke="#505967" stroke-width="0.5"/>
<path d="M232.316 99H59.529C56.1807 99 53.4663 101.686 53.4663 105V127C53.4663 130.314 56.1807 133 59.529 133H232.316C235.665 133 238.379 130.314 238.379 127V105C238.379 101.686 235.665 99 232.316 99Z" fill="#26282D"/>
<path d="M232.317 99.25H59.5293C56.3205 99.25 53.7192 101.824 53.7192 105V127C53.7192 130.176 56.3205 132.75 59.5293 132.75H232.317C235.526 132.75 238.127 130.176 238.127 127V105C238.127 101.824 235.526 99.25 232.317 99.25Z" stroke="#505967" stroke-width="0.5"/>
<path d="M120.157 113H86.8116C85.1375 113 83.7803 114.343 83.7803 116C83.7803 117.657 85.1375 119 86.8116 119H120.157C121.831 119 123.188 117.657 123.188 116C123.188 114.343 121.831 113 120.157 113Z" fill="#505967"/>
<path d="M72.2871 111.365C72.2871 113.321 71.2217 115.083 69.2451 115.083C71.2217 115.083 72.2871 116.846 72.2871 118.802C72.2871 116.846 73.3525 115.083 75.329 115.083C73.3525 115.083 72.2871 113.321 72.2871 111.365Z" fill="#6B9FFF"/>
<path d="M67.2768 117.031C67.2768 118.205 66.1367 119.333 64.9507 119.333C66.1367 119.333 67.2768 120.462 67.2768 121.636C67.2768 120.462 68.4171 119.333 69.603 119.333C68.4171 119.333 67.2768 118.205 67.2768 117.031Z" fill="#6B9FFF"/>
<path d="M72.2871 111.365C72.2871 113.321 71.2217 115.083 69.2451 115.083C71.2217 115.083 72.2871 116.846 72.2871 118.802C72.2871 116.846 73.3525 115.083 75.329 115.083C73.3525 115.083 72.2871 113.321 72.2871 111.365Z" stroke="#6B9FFF" stroke-width="1.275" stroke-linecap="round" stroke-linejoin="round"/>
<path d="M67.2768 117.031C67.2768 118.205 66.1367 119.333 64.9507 119.333C66.1367 119.333 67.2768 120.462 67.2768 121.636C67.2768 120.462 68.4171 119.333 69.603 119.333C68.4171 119.333 67.2768 118.205 67.2768 117.031Z" stroke="#6B9FFF" stroke-width="1.275" stroke-linecap="round" stroke-linejoin="round"/>
<path d="M212.108 113H180.784C179.11 113 177.752 114.343 177.752 116C177.752 117.657 179.11 119 180.784 119H212.108C213.782 119 215.139 117.657 215.139 116C215.139 114.343 213.782 113 212.108 113Z" fill="#505967"/>
<path d="M163.606 113.834L160.069 118.167H167.143L163.606 113.834Z" fill="#6F7988" stroke="#6F7988" stroke-width="1.2" stroke-linecap="round" stroke-linejoin="round"/>
<path d="M146.428 103V129" stroke="#505967" stroke-width="0.5"/>
<path d="M232.316 58H59.529C56.1807 58 53.4663 60.6863 53.4663 64V86C53.4663 89.3137 56.1807 92 59.529 92H232.316C235.665 92 238.379 89.3137 238.379 86V64C238.379 60.6863 235.665 58 232.316 58Z" fill="#26282D"/>
<path d="M232.317 58.25H59.5293C56.3205 58.25 53.7192 60.8244 53.7192 64V86C53.7192 89.1756 56.3205 91.75 59.5293 91.75H232.317C235.526 91.75 238.127 89.1756 238.127 86V64C238.127 60.8244 235.526 58.25 232.317 58.25Z" stroke="#505967" stroke-width="0.5"/>
<path d="M106.01 72H86.8116C85.1375 72 83.7803 73.3431 83.7803 75C83.7803 76.6569 85.1375 78 86.8116 78H106.01C107.684 78 109.042 76.6569 109.042 75C109.042 73.3431 107.684 72 106.01 72Z" fill="#505967"/>
<path d="M65.5918 75.5374L70.3861 70.167V74.4633H73.5016L68.3652 79.8337V75.5374H65.5918Z" fill="#6F7988" stroke="#6F7988" stroke-width="1.2" stroke-linecap="round" stroke-linejoin="round"/>
<path d="M218.171 72H180.784C179.11 72 177.752 73.3431 177.752 75C177.752 76.6569 179.11 78 180.784 78H218.171C219.845 78 221.202 76.6569 221.202 75C221.202 73.3431 219.845 72 218.171 72Z" fill="#505967"/>
<path d="M163.606 77.1663L167.143 72.833H160.069L163.606 77.1663Z" fill="#6B9FFF" stroke="#6B9FFF" stroke-width="1.2" stroke-linecap="round" stroke-linejoin="round"/>
<path d="M146.428 62V88" stroke="#505967" stroke-width="0.5"/>
</svg>
