<svg width="94" height="26" viewBox="0 0 94 26" fill="none" xmlns="http://www.w3.org/2000/svg">
<g clip-path="url(#clip0_846_96156)">
<mask id="mask0_846_96156" style="mask-type:luminance" maskUnits="userSpaceOnUse" x="0" y="0" width="94" height="26">
<path d="M93.7896 0.612366H0.347168V25.3877H93.7896V0.612366Z" fill="white"/>
</mask>
<g mask="url(#mask0_846_96156)">
<path d="M36.2874 16.4405C34.6347 16.4405 33.441 15.1003 33.441 13.2816C33.441 11.4628 34.6347 10.1227 36.2874 10.1227C37.6648 10.1227 38.7299 11.0416 39.0422 12.42H41.0071C40.6398 9.98869 38.7667 8.30396 36.2874 8.30396C33.5328 8.30396 31.5127 10.4099 31.5127 13.2816C31.5127 16.1533 33.5328 18.2591 36.2874 18.2591C38.7667 18.2591 40.6398 16.5744 41.0071 14.143H39.0422C38.7299 15.5023 37.6648 16.4405 36.2874 16.4405Z" fill="#31373D"/>
<path d="M43.5975 18.0677L44.3504 16.1532H49.1986L49.9515 18.0677H51.9349L48.1702 8.49536H45.4156L41.6509 18.0677H43.5975ZM45.0299 14.4303L46.6827 10.2184H46.8663L48.5191 14.4303H45.0299Z" fill="#31373D"/>
<path d="M57.5316 16.4404C56.0441 16.4404 54.9606 15.196 54.9606 13.473V8.49536H53.124V13.473C53.124 16.2298 54.9974 18.2591 57.5316 18.2591C60.0659 18.2591 61.9391 16.2298 61.9391 13.473V8.49536H60.1026V13.473C60.1026 15.196 59.0191 16.4404 57.5316 16.4404Z" fill="#31373D"/>
<path d="M68.4577 16.5361C66.9151 16.5361 65.8869 16 65.8869 15.196H64.0503C64.0503 17.0338 65.8135 18.2591 68.4577 18.2591C71.3228 18.2591 72.8654 17.1679 72.8654 15.1386C72.8654 13.1858 71.5797 12.3243 68.5498 12.3243C66.805 12.3243 66.0704 12.0372 66.0704 11.3097C66.0704 10.4673 66.8971 10.0269 68.4577 10.0269C69.8903 10.0269 70.8451 10.563 70.8451 11.3671H72.6813C72.6813 9.5292 70.9919 8.30396 68.4577 8.30396C65.7034 8.30396 64.234 9.35695 64.234 11.3097C64.234 13.2432 65.4826 14.0474 68.3843 14.0474C70.2206 14.0474 71.0286 14.3727 71.0286 15.1386C71.0286 16.0384 70.1291 16.5361 68.4577 16.5361Z" fill="#31373D"/>
<path d="M76.0074 18.0677L76.7613 16.1532H81.6087L82.3614 18.0677H84.3457L80.5799 8.49536H77.8262L74.061 18.0677H76.0074ZM77.4405 14.4303L79.0933 10.2184H79.2768L80.9295 14.4303H77.4405Z" fill="#31373D"/>
<path d="M86.0918 18.0677H93.438V16.3447H87.9287V8.49536H86.0918V18.0677Z" fill="#31373D"/>
<path opacity="0.8" fill-rule="evenodd" clip-rule="evenodd" d="M12.23 25.3877C18.7928 25.3877 24.1128 19.8416 24.1128 13C24.1128 6.15851 18.7928 0.612366 12.23 0.612366C5.66729 0.612366 0.347168 6.15851 0.347168 13C0.347168 19.8416 5.66729 25.3877 12.23 25.3877ZM12.23 20.7568C16.3393 20.7568 19.6706 17.284 19.6706 13C19.6706 8.71608 16.3393 5.24328 12.23 5.24328C8.12067 5.24328 4.78934 8.71608 4.78934 13C4.78934 17.284 8.12067 20.7568 12.23 20.7568Z" fill="#555E67"/>
</g>
</g>
<defs>
<clipPath id="clip0_846_96156">
<rect width="94" height="26" fill="white"/>
</clipPath>
</defs>
</svg>
