<svg width="78" height="28" viewBox="0 0 78 28" fill="none" xmlns="http://www.w3.org/2000/svg">
<g clip-path="url(#clip0_846_96190)">
<mask id="mask0_846_96190" style="mask-type:luminance" maskUnits="userSpaceOnUse" x="0" y="1" width="78" height="26">
<path d="M78 1.16675H0V26.8334H78V1.16675Z" fill="white"/>
</mask>
<g mask="url(#mask0_846_96190)">
<path d="M29.8617 23.4946C26.9735 21.6531 23.0541 21.3302 16.7329 23.0656C9.99407 24.6332 7.7476 25.6383 4.79676 23.621C3.66316 22.6303 3.25708 21.0348 3.5603 18.7367C4.26401 14.99 6.1663 11.3846 9.54493 7.38531C11.4309 5.30491 13.1802 3.51956 15.4902 2.80267C17.2607 2.35296 17.0953 3.73018 16.8811 3.92707C16.6549 3.92707 16.2753 3.96231 15.9818 4.15203C15.7436 4.3352 15.0895 4.92526 15.0548 5.71959C15.0041 6.93537 16.2753 6.68234 16.8236 6.01483C17.4145 5.2625 18.2877 3.82196 17.601 2.47937C17.3129 2.00138 16.8153 1.67131 16.1975 1.55863C14.0824 1.43918 12.1125 2.43716 10.2944 3.54046C6.31843 6.27462 3.13786 10.0633 1.33823 14.2104C0.300463 16.7126 -0.637749 20.2966 0.769051 23.2135C1.85711 25.2376 4.11623 26.3128 6.81102 26.0883C8.70111 25.8914 10.9867 25.2868 12.5241 24.9214C14.0617 24.556 21.9307 21.8781 24.5162 26.5386C24.5162 26.5386 25.376 24.8866 27.5247 24.8512C29.2913 24.6899 31.8397 25.3578 33.6954 26.707C33.077 25.7865 31.3242 24.4299 29.8617 23.4946Z" fill="#31373D"/>
<path d="M17.5368 7.85658C16.065 6.90062 13.107 8.72801 10.7375 11.8627C8.57068 14.6745 7.63539 17.9426 8.65343 19.4536C10.1679 21.2316 12.9795 18.6458 14.1753 17.2612L14.3297 17.0991C15.1427 16.2347 15.7709 15.1943 16.3788 14.1963C16.3788 14.1963 16.9374 13.2825 16.9641 13.2403C17.3097 13.1772 17.7258 13.0789 18.1943 12.9453C18.1877 12.9664 16.4007 15.9396 16.5831 17.4154C16.6398 17.8655 16.5963 19.5105 18.2186 20.0092C20.3806 20.3677 22.1069 18.7086 23.6299 17.2324C23.6299 17.2324 23.8896 16.9868 24.0364 16.8467C23.9991 16.9935 23.9507 17.1902 23.9507 17.1902C23.3177 19.3694 24.1709 19.8263 24.7049 19.9947C26.3178 20.4592 28.2448 18.1391 28.251 18.1391C28.2011 18.8699 28.0552 19.4745 28.8332 19.9594C29.5675 20.2196 30.3108 19.823 30.8758 19.4505C32.9108 18.0307 34.55 15.8091 35.8742 13.8881H35.0296C35.0196 13.8881 32.9455 16.8641 31.5983 17.5109C31.5963 17.5109 31.3512 17.6356 31.21 17.5369C31.0352 17.3892 31.1041 17.0823 31.2122 16.8649C31.219 16.8512 36.413 7.93386 36.413 7.93386H33.9605C33.9605 7.93386 33.6925 8.36289 33.671 8.39075C33.6544 8.37703 33.6151 8.30304 33.588 8.26762C32.0686 6.18722 28.6281 9.38727 26.0378 13.0983C25.0404 14.5253 23.7706 16.1318 22.4543 17.2915C22.4543 17.2915 20.504 19.0617 19.6704 17.7899C19.3658 17.2558 19.4596 16.4742 19.6316 15.9616C20.6018 13.2274 22.2738 10.746 24.1763 9.2486C24.7133 8.83448 25.2972 8.71464 25.5866 8.89027C25.8625 9.05211 25.9072 9.45223 25.7325 9.72656C25.2894 9.71284 24.9347 9.84584 24.6459 10.141C24.0774 10.7315 23.8797 11.3009 24.0603 11.8352C24.9386 13.0721 26.6899 10.6264 26.6051 9.13632C26.5749 8.60194 26.2868 8.09591 25.8573 7.84986C25.2167 7.47039 24.24 7.56874 23.6077 7.87114C22.7612 8.18726 21.4215 9.2906 20.6393 10.1482C19.6546 11.2239 17.9661 12.4185 17.4381 12.2847C17.6111 11.8275 19.0371 8.93857 17.5368 7.85658ZM29.3595 12.1299C29.8366 11.4763 31.2251 9.72635 31.5632 9.43116C32.7015 8.43989 33.1566 8.87613 33.1962 9.18483C32.1338 11.0683 30.88 13.2264 29.7006 15.1664C29.7033 15.1595 29.3316 15.7216 29.3316 15.7216C28.811 16.5088 28.2866 17.1835 27.4314 17.6545C27.3097 17.6898 27.1084 17.7037 26.9748 17.6053C26.814 17.4996 26.7502 17.324 26.7682 17.1411C26.8198 16.5366 27.4415 14.6884 29.3595 12.1299ZM16.019 13.2614C16.019 13.2614 15.9975 13.3249 15.9871 13.3458C15.9844 13.3458 14.918 15.0678 14.918 15.0678C14.2745 15.9179 13.4706 16.9866 12.4661 17.4996C12.1685 17.5978 11.7566 17.6613 11.5472 17.4015C11.1028 16.8741 11.3317 16.1429 11.5179 15.5528L11.5836 15.342C12.1176 13.9084 12.9645 12.6433 13.7887 11.4695C13.7992 11.4626 13.822 11.4556 13.8305 11.4556C13.8324 11.4628 13.8355 11.4628 13.8371 11.4767C14.3545 12.4606 15.3244 12.9172 16.0495 13.1286C16.0538 13.1286 16.0588 13.1356 16.0588 13.15C16.0592 13.1701 16.0472 13.1983 16.019 13.2614ZM17.0293 11.2304C17.025 11.2444 16.5545 12.3126 16.5545 12.3126C16.4864 12.3688 16.3788 12.3408 16.2558 12.3126L16.0447 12.2774C15.3816 12.0737 14.8815 11.6379 14.7275 11.1179C14.515 10.106 15.3884 9.31167 15.7731 9.02341C16.1424 8.77015 16.7167 8.63659 17.0498 8.89678C17.2553 9.1359 17.3333 9.44509 17.3333 9.78249C17.3333 10.2392 17.1909 10.7524 17.0293 11.2304Z" fill="#31373D"/>
<path d="M48.0302 14.4913C47.7933 13.9852 47.2326 13.6621 46.6342 13.6971C44.6916 13.8728 42.7916 15.4542 41.7937 17.7243C41.2703 18.8907 40.9844 19.8541 40.7974 21.3862C41.4013 20.6978 42.6334 19.5658 44.0315 18.9473C44.0315 18.9473 44.2219 17.4785 45.192 16.1713C45.559 15.6294 46.294 14.7584 47.1189 14.99C47.8396 15.2293 47.5863 17.2046 46.6287 19.1157C45.9196 20.5214 44.835 21.928 43.7372 22.8977C42.7669 23.7129 41.3313 24.6967 40.0756 23.9377C39.2847 23.4738 38.8812 22.5038 38.9664 21.2528C39.3446 17.7035 40.9764 14.681 43.3123 11.2369C45.7208 8.03912 48.3757 4.75667 51.952 3.00635C52.6812 2.64084 53.3571 2.55644 53.9408 2.7816C53.9408 2.7816 50.5835 4.60895 48.9831 7.9897C48.576 8.84755 48.0098 10.0068 48.5801 11.0331C48.8778 11.567 49.4072 11.6094 49.8332 11.5811C51.7949 11.1312 53.0624 9.31802 54.0977 7.65923C54.6981 6.40107 55.2317 5.15005 55.2317 3.75848C55.2317 3.58986 55.223 3.3649 55.2083 3.19629C56.1457 2.70436 58.0672 3.57573 58.0672 3.57573C59.5691 4.06786 62.7664 6.49305 63.8453 6.95671C64.3715 6.35231 65.2362 5.43873 65.7228 4.98164L65.0182 4.55282C63.8901 3.87096 62.6972 3.22436 61.5231 2.58491C58.8573 1.14417 56.6875 1.65003 55.5829 2.04361C55.1485 2.1983 54.7519 2.33188 54.7519 2.33188C53.9321 1.44617 52.588 1.53038 51.5978 1.76948C48.0356 2.7814 44.7288 5.24839 41.1833 9.529C38.5767 12.8817 36.9596 15.7775 36.098 18.6381C35.4336 20.5636 35.2316 23.3963 36.8531 25.0761C38.2317 26.5027 40.0595 26.1936 41.3504 25.681C44.1472 24.3171 46.6607 21.3792 47.9129 17.9983C48.2151 16.9937 48.5506 15.5739 48.0302 14.4913ZM54.4611 3.89944C54.0908 8.10261 50.7907 10.5698 49.9737 10.7665C49.4788 10.8647 48.6344 10.6468 49.388 8.88304C50.4984 6.50719 52.3936 4.49033 54.4278 3.4569C54.4773 3.63248 54.4758 3.74455 54.4611 3.89944Z" fill="#31373D"/>
<path d="M74.0386 4.43342C72.2638 5.43182 70.423 6.07823 68.1952 5.85327C67.578 6.54228 66.9767 7.25198 66.4229 7.98306C69.5494 8.77021 72.8644 7.02007 74.713 5.35458C76.6686 3.67474 77.672 1.55933 77.672 1.55933C77.672 1.55933 76.2056 3.21765 74.0386 4.43342Z" fill="#31373D"/>
<path d="M40.4873 7.93335H38.1584L36.8447 10.0463H39.1732L40.4873 7.93335Z" fill="#31373D"/>
<path d="M68.1871 23.6904C67.9364 23.8592 67.5848 23.7293 67.7162 23.3433C68.0441 22.359 69.3465 20.3539 69.3465 20.3539L72.9746 13.984H70.4894C70.3712 14.1763 70.1185 14.6168 70.1185 14.6168C70.0036 14.4274 69.6599 14.006 69.5183 13.9148C68.9113 13.535 68.0207 13.7145 67.4062 14.0589C64.7345 15.6051 62.7848 18.6607 61.2472 21.0437C61.2472 21.0437 59.6291 23.6925 58.7307 23.8893C58.0292 23.9457 58.1018 23.0106 58.1319 22.7924C58.4032 21.2178 59.033 19.7212 59.6674 18.3643C60.9577 17.4791 62.4307 16.3193 63.7688 15.0472C66.673 12.2987 69.122 9.18511 69.48 8.48931C69.48 8.48931 69.0926 8.56652 68.6349 8.58045C66.4007 11.6662 61.8278 16.1503 60.4417 16.8182C61.0558 15.356 65.0237 8.37661 68.4 5.03804L68.9311 4.53177C69.753 3.73765 70.6039 2.92242 71.2671 2.78883C71.3373 2.78166 71.4274 2.78883 71.5054 2.95069C71.5351 3.56923 71.3026 4.02612 71.0352 4.54611L70.6615 5.30541C70.6615 5.30541 71.1912 5.20707 71.5387 5.09418C71.9422 4.34246 72.3889 3.49875 72.2244 2.49401C72.1691 2.1705 71.9329 1.92464 71.6245 1.8685C70.6171 1.67857 69.5189 2.41636 68.636 3.014L68.6 3.0349C64.0594 6.55622 60.2252 11.631 56.8733 18.5611C56.6303 18.7437 55.6916 18.9617 55.5323 18.856C55.8634 18.1813 56.28 17.2742 56.4887 16.2906C56.5249 16.0093 56.5584 15.7216 56.5584 15.4404C56.5584 14.8357 56.4117 14.2664 55.8642 13.873C55.2222 13.5567 54.4291 13.7044 53.8941 13.9433C51.4979 14.9276 49.7072 17.3595 48.4147 19.3621C47.7198 20.6349 47.0265 21.9974 46.8346 23.5581C46.6994 24.781 46.9746 25.5681 47.6768 25.9617C48.3991 26.3271 49.3082 25.9474 49.6652 25.7648C52.0928 24.4995 53.7889 21.9622 55.126 19.6427C55.1792 19.636 55.9088 19.6146 56.461 19.4743C56.4682 19.4743 56.4715 19.4743 56.4838 19.4815C56.4521 19.5868 56.1667 20.4303 56.1667 20.4303C55.3193 22.8901 54.9277 24.5632 55.7279 25.554C56.8716 26.9529 58.7652 25.5053 60.3055 23.5929C59.9745 25.8843 61.1746 26.2432 62.0888 26.0674C63.1391 25.7864 64.3096 24.6755 64.8529 24.1063C64.6782 24.7743 64.726 25.9691 65.6812 26.0884C66.3361 26.2084 66.8262 25.8558 67.3933 25.5534C69.4279 24.4569 71.8634 20.8026 72.4952 19.7462H71.6663C70.7692 21.0911 69.6255 22.8537 68.1871 23.6904ZM49.9262 23.446C49.797 23.2558 49.7544 23.0489 49.7499 22.8243C49.725 21.4459 51.2227 18.9783 52.2805 17.6336C52.2828 17.6336 52.2828 17.6336 52.2828 17.6336C52.7259 18.5942 53.7291 19.2114 54.3349 19.4713C53.5826 21.1302 51.0026 24.6828 49.9262 23.446ZM54.7595 18.7302C54.6876 18.7793 53.4226 18.3579 53.1782 17.1979C52.9706 16.1995 53.6652 15.4192 54.3372 15.0259C54.6259 14.8009 55.0602 14.7237 55.3787 14.8357C55.6745 15.0331 55.7544 15.3845 55.7544 15.7633C55.7544 15.9958 55.7238 16.2347 55.696 16.4523C55.696 16.4523 55.6908 16.4947 55.69 16.5014C55.4791 17.2815 55.1566 18.0477 54.7595 18.7302ZM64.9071 23.0034L64.6672 23.2138C64.3259 23.5164 63.9747 23.8393 63.5506 23.6779C63.4335 23.6355 63.3509 23.481 63.331 23.3612C63.3118 22.4967 63.7053 21.6957 64.0865 20.9152L64.1842 20.7116C65.2814 18.898 66.5565 16.7616 68.4295 15.2785C68.7449 15.0531 69.0876 14.8637 69.449 15.0114C69.5322 15.0884 69.629 15.222 69.629 15.3558C69.629 15.3978 69.5909 15.5102 69.569 15.5455C69.0464 16.3822 68.548 17.2605 68.0637 18.104C67.1172 19.7702 66.1351 21.4916 64.9071 23.0034Z" fill="#31373D"/>
</g>
</g>
<defs>
<clipPath id="clip0_846_96190">
<rect width="78" height="28" fill="white"/>
</clipPath>
</defs>
</svg>
