<svg width="72" height="26" viewBox="0 0 72 26" fill="none" xmlns="http://www.w3.org/2000/svg">
<g clip-path="url(#clip0_816_29197)">
<mask id="mask0_816_29197" style="mask-type:luminance" maskUnits="userSpaceOnUse" x="0" y="4" width="72" height="20">
<path d="M71.6522 4.34766H0.134766V23.6013H71.6522V4.34766Z" fill="white"/>
</mask>
<g mask="url(#mask0_816_29197)">
<path opacity="0.5" fill-rule="evenodd" clip-rule="evenodd" d="M52.2778 8.18604C51.9896 8.47484 51.7308 8.79197 51.5056 9.13264C50.9477 8.28972 50.1903 7.59825 49.3009 7.11991C48.4116 6.64158 47.418 6.3912 46.4086 6.39116H33.7009V7.94912C32.5805 6.94545 31.1304 6.39061 29.6276 6.39063H23.0347C22.0255 6.39061 21.0319 6.64086 20.1427 7.11913C19.2534 7.5974 18.4961 8.28881 17.9383 9.1316C17.3806 8.28861 16.6233 7.59714 15.7341 7.11887C14.8448 6.6406 13.8511 6.39042 12.8419 6.39063H0.134766V23.6012H12.8435C13.8529 23.6013 14.8465 23.351 15.7358 22.8725C16.6251 22.394 17.3824 21.7023 17.9399 20.8592C18.4975 21.7023 19.2547 22.394 20.144 22.8725C21.0333 23.351 22.027 23.6013 23.0363 23.6012H29.6287C31.1317 23.6012 32.5812 23.0466 33.7015 22.0433V23.6012H44.1328V20.2998H46.4102C47.2692 20.2999 48.1186 20.1187 48.903 19.7679C49.6874 19.4171 50.3893 18.9045 50.9628 18.2637H54.6838V23.6012H65.1151V18.2637H69.3092V6.39063H56.6014C55.7984 6.39068 55.0032 6.54928 54.2614 6.85731C53.5196 7.16541 52.8455 7.6169 52.2778 8.18604Z" fill="#555E67"/>
<path d="M14.8822 5.36914H3.19336V20.5367H14.8822C16.2339 20.5366 17.5302 19.9988 18.4863 19.0414C19.4418 18.0833 19.9785 16.7842 19.9786 15.4297V10.4772C19.9786 9.8065 19.8469 9.1424 19.5908 8.52269C19.3347 7.90304 18.9593 7.33995 18.486 6.86571C18.0128 6.39139 17.4509 6.01516 16.8326 5.75847C16.2142 5.50179 15.5515 5.36914 14.8822 5.36914Z" fill="#F7F7F7"/>
<path fill-rule="evenodd" clip-rule="evenodd" d="M2.1748 4.34766H14.8835C16.5054 4.34766 18.0608 4.99329 19.2077 6.14251C20.3545 7.29173 20.9988 8.85043 20.9988 10.4757V15.4292C20.9988 17.0545 20.3545 18.6131 19.2077 19.7624C18.0608 20.9116 16.5054 21.5572 14.8835 21.5572H2.17534L2.1748 4.34766ZM4.21359 6.39068V19.5147H14.8835C15.419 19.5147 15.9492 19.409 16.4439 19.2037C16.9385 18.9983 17.388 18.6973 17.7666 18.3179C18.1452 17.9385 18.4455 17.488 18.6504 16.9923C18.8552 16.4965 18.9606 15.9652 18.9606 15.4286V10.4762C18.9602 9.66833 18.721 8.87871 18.2731 8.20693C17.8252 7.53522 17.1888 7.01152 16.4441 6.70192C15.9493 6.49666 15.4191 6.39107 14.8835 6.39122L4.21359 6.39068Z" fill="#31373D"/>
<path fill-rule="evenodd" clip-rule="evenodd" d="M12.6074 16.7748V10.036H14.6463V16.7748H12.6074Z" fill="#31373D"/>
<path d="M48.4506 5.36914H36.7607V20.5367H45.1539V17.2353H48.4506C49.8018 17.2348 51.0976 16.6968 52.0531 15.7393C53.0085 14.7819 53.5455 13.4834 53.546 12.1293V10.4767C53.546 9.80611 53.4143 9.14207 53.1583 8.52249C52.9022 7.90291 52.5269 7.33995 52.0538 6.86571C51.5806 6.39148 51.0189 6.01528 50.4007 5.75859C49.7824 5.5019 49.1198 5.36921 48.4506 5.36914Z" fill="#F7F7F7"/>
<path fill-rule="evenodd" clip-rule="evenodd" d="M35.7422 4.34766H48.4509C50.0728 4.34766 51.6282 4.99329 52.7751 6.14251C53.9219 7.29173 54.5662 8.85043 54.5662 10.4757V12.1283C54.5659 13.7534 53.9215 15.312 52.7747 16.4611C51.628 17.6103 50.0727 18.256 48.4509 18.2563H46.173V21.5572H35.7422V4.34766ZM37.781 6.39068V19.5147H44.1342V16.2138H48.4509C49.532 16.2134 50.5687 15.7831 51.3335 15.0174C52.0977 14.2511 52.5271 13.2121 52.5274 12.1288V10.4762C52.5272 9.39292 52.098 8.35403 51.334 7.58761C50.5691 6.82172 49.5322 6.39139 48.4509 6.39122L37.7804 6.39015L37.781 6.39068Z" fill="#31373D"/>
<path fill-rule="evenodd" clip-rule="evenodd" d="M46.1816 14.1598V10.0342H48.2204V14.1598H46.1816Z" fill="#31373D"/>
<path d="M31.6693 5.36914H25.0764C24.0684 5.36869 23.0829 5.66799 22.2447 6.22914C21.4066 6.79031 20.7534 7.58805 20.368 8.52139C20.112 9.14097 19.9803 9.80501 19.9805 10.4756V15.4291C19.9807 16.7835 20.5176 18.0823 21.4731 19.04C22.4288 19.9977 23.7249 20.5359 25.0764 20.5362H31.6693C33.021 20.5361 34.3173 19.9982 35.2735 19.0408C36.2291 18.0828 36.7661 16.7837 36.7663 15.4291V10.4767C36.7663 9.12212 36.2292 7.82296 35.2734 6.86512C34.3175 5.90726 33.0211 5.36914 31.6693 5.36914Z" fill="#F7F7F7"/>
<path fill-rule="evenodd" clip-rule="evenodd" d="M20.7504 6.14253C21.8973 4.9933 23.4527 4.34767 25.0746 4.34766H31.6691C32.4722 4.34766 33.2674 4.50617 34.0093 4.81412C34.7513 5.12209 35.4254 5.57347 35.9933 6.14251C36.5611 6.71154 37.0116 7.38709 37.3189 8.13056C37.6262 8.87403 37.7844 9.67093 37.7844 10.4757V15.4292C37.7844 17.0545 37.1401 18.6131 35.9933 19.7624C34.8464 20.9116 33.291 21.5572 31.6691 21.5572H25.0762C23.4543 21.5572 21.8989 20.9116 20.7521 19.7624C19.6052 18.6131 18.9609 17.0545 18.9609 15.4292V10.4767C18.9605 9.6719 19.1184 8.87494 19.4255 8.13127C19.7325 7.38761 20.1827 6.7118 20.7504 6.14253ZM25.0746 6.39015C23.9933 6.39033 22.9563 6.82061 22.1915 7.58657C21.4272 8.35299 20.9978 9.39214 20.9976 10.4757V15.4292C20.9977 16.5128 21.4274 17.552 22.1921 18.3181C22.9567 19.0843 23.9938 19.5147 25.0751 19.5147H31.6691C32.4755 19.5145 33.2637 19.2748 33.9342 18.8259C34.6047 18.377 35.1273 17.739 35.436 16.9925C35.6408 16.4968 35.7462 15.9657 35.7462 15.4292V10.4767C35.7459 9.66878 35.5067 8.87903 35.0588 8.20719C34.611 7.53535 33.9744 7.01152 33.2297 6.70192C32.7349 6.49666 32.2047 6.39107 31.6691 6.39122L25.0746 6.39015Z" fill="#31373D"/>
<path fill-rule="evenodd" clip-rule="evenodd" d="M27.3493 10.036V16.7748H25.3105V10.036H27.3493Z" fill="#31373D"/>
<path d="M70.3331 5.36914H58.6423C57.9731 5.36903 57.3105 5.50108 56.6922 5.75776C56.074 6.01444 55.5123 6.3907 55.0392 6.86506C54.5658 7.33904 54.1903 7.90194 53.9341 8.52145C53.6778 9.14097 53.546 9.80501 53.5459 10.4756V15.1986H57.7398V20.5362H66.1331V15.1986H70.3266L70.3331 5.36914Z" fill="#F7F7F7"/>
<path fill-rule="evenodd" clip-rule="evenodd" d="M54.3195 6.14253C55.4665 4.99327 57.0222 4.34764 58.6442 4.34766H71.3523V16.2197H67.1587V21.5572H56.7271V16.2197H52.5332V10.4762C52.5319 8.85147 53.1744 7.29271 54.3195 6.14253ZM58.6442 6.39015C58.1087 6.39015 57.5785 6.49584 57.0839 6.70121C56.5891 6.90654 56.1397 7.20749 55.7611 7.58696C55.3825 7.96637 55.0822 8.41682 54.8774 8.91257C54.6725 9.40833 54.5671 9.93964 54.5672 10.4762V14.1772H58.7611V19.5147H65.1161V14.1772H69.3097V6.39015H58.6442Z" fill="#31373D"/>
</g>
</g>
<defs>
<clipPath id="clip0_816_29197">
<rect width="72" height="26" fill="white"/>
</clipPath>
</defs>
</svg>
