<svg width="124" height="26" viewBox="0 0 124 26" fill="none" xmlns="http://www.w3.org/2000/svg">
<g clip-path="url(#clip0_816_29198)">
<mask id="mask0_816_29198" style="mask-type:luminance" maskUnits="userSpaceOnUse" x="0" y="0" width="124" height="26">
<path d="M123.475 0H0.124023V26H123.475V0Z" fill="white"/>
</mask>
<g mask="url(#mask0_816_29198)">
<mask id="mask1_816_29198" style="mask-type:luminance" maskUnits="userSpaceOnUse" x="0" y="7" width="124" height="12">
<path d="M123.475 7.02441H0.124023V18.976H123.475V7.02441Z" fill="white"/>
</mask>
<g mask="url(#mask1_816_29198)">
<path d="M8.5679 7.02441V11.5568H3.49415V7.02441H0.124023V18.976H3.49415V14.4064H8.57082V18.976H11.9409V7.02441H8.5679Z" fill="#31373D"/>
<path d="M19.6182 10.6279L17.1071 7.02441H12.9639L17.8286 13.7212V18.976H21.2159V13.704L26.0779 7.02441H22.1265L19.6182 10.6279Z" fill="#31373D"/>
<path d="M33.8113 7.02441H27.1055V18.976H30.4756V15.2148H33.8113C36.8808 15.2148 38.4986 13.79 38.4986 11.121C38.4986 8.45207 36.8837 7.02441 33.8113 7.02441ZM35.054 11.1239C35.054 12.004 34.5444 12.4054 33.4047 12.4054H30.4698V9.8367H33.4047C34.5472 9.8367 35.054 10.2209 35.054 11.1182V11.1239Z" fill="#31373D"/>
<path d="M39.8125 18.976H50.8222V16.201H43.1827V14.2659H49.6795V11.6973H43.1827V9.79946H50.8222V7.02441H39.8125V18.976Z" fill="#31373D"/>
<path d="M63.9096 10.9433C63.9096 8.38038 62.3831 7.02441 59.4485 7.02441H52.3359V18.976H55.7062V14.845H57.8648L60.5681 18.976L60.5766 18.9703H64.4905L61.556 14.544C63.0993 14.0165 63.9066 12.8039 63.9066 10.9405L63.9096 10.9433ZM58.9875 12.1044H55.7062V9.78223H58.9875C60.0041 9.78223 60.4791 10.1521 60.4791 10.9433C60.4791 11.7345 60.0041 12.1044 58.9875 12.1044Z" fill="#31373D"/>
<path d="M69.0153 7.02441H65.6445V18.976H76.0359V16.1121H69.0153V7.02441Z" fill="#31373D"/>
<path d="M80.9199 7.02441H77.5498V18.976H80.9199V7.02441Z" fill="#31373D"/>
<path d="M91.601 13.704L86.7903 7.02441H82.9619V18.976H86.1749V11.2615L91.738 18.976H94.8133V7.02441H91.601V13.704Z" fill="#31373D"/>
<path d="M96.8555 18.976H107.862V16.201H100.226V14.2659H106.723V11.6973H100.226V9.79946H107.862V7.02441H96.8555V18.976Z" fill="#31373D"/>
<path d="M123.17 7.02441H111.232V18.976H123.17V7.02441Z" fill="#31373D"/>
</g>
</g>
</g>
<defs>
<clipPath id="clip0_816_29198">
<rect width="124" height="26" fill="white"/>
</clipPath>
</defs>
</svg>
