<svg width="98" height="26" viewBox="0 0 98 26" fill="none" xmlns="http://www.w3.org/2000/svg">
<g clip-path="url(#clip0_816_29199)">
<mask id="mask0_816_29199" style="mask-type:luminance" maskUnits="userSpaceOnUse" x="0" y="1" width="98" height="24">
<path d="M97.352 1.9502H0.000976562V24.0502H97.352V1.9502Z" fill="white"/>
</mask>
<g mask="url(#mask0_816_29199)">
<path d="M16.9687 13.3516H10.8023C10.7286 13.3516 10.6689 13.4116 10.6689 13.4857V15.2294C10.6689 15.3034 10.7286 15.3636 10.8023 15.3636H16.4162C16.7039 14.7409 16.8947 14.0636 16.9687 13.3516Z" fill="#31373D"/>
<path d="M15.5804 16.7041H10.8023C10.7286 16.7041 10.6689 16.7641 10.6689 16.8381V18.716C10.6689 18.9012 10.8184 19.0522 11.0022 19.0427C12.8478 18.9464 14.4843 18.0557 15.5804 16.7041Z" fill="#31373D"/>
<path d="M16.9687 12.0101H10.8023C10.7286 12.0101 10.6689 11.95 10.6689 11.8759V10.1322C10.6689 10.0582 10.7286 9.99805 10.8023 9.99805H16.4162C16.7039 10.6207 16.8947 11.298 16.9687 12.0101Z" fill="#31373D"/>
<path d="M15.5804 8.65645C14.4843 7.30478 12.8478 6.41406 11.0022 6.31782C10.8184 6.30823 10.6689 6.45927 10.6689 6.64451V8.52229C10.6689 8.59639 10.7286 8.65645 10.8023 8.65645H15.5804Z" fill="#31373D"/>
<path fill-rule="evenodd" clip-rule="evenodd" d="M10.6696 21.3993C15.4569 21.3993 19.3378 17.4959 19.3378 12.6807C19.3378 7.86558 15.4569 3.96217 10.6696 3.96217C5.88225 3.96217 2.00134 7.86558 2.00134 12.6807C2.00134 17.4959 5.88225 21.3993 10.6696 21.3993ZM10.6696 23.4112C16.5617 23.4112 21.3382 18.607 21.3382 12.6807C21.3382 6.75441 16.5617 1.9502 10.6696 1.9502C4.77747 1.9502 0.000976562 6.75441 0.000976562 12.6807C0.000976562 18.607 4.77747 23.4112 10.6696 23.4112Z" fill="#31373D"/>
<path d="M33.7934 19.1646C32.9119 19.1646 32.0958 19.0029 31.3453 18.6794C30.6067 18.3558 29.9574 17.9065 29.3974 17.3314C28.8495 16.7442 28.4206 16.0612 28.1108 15.2824C27.813 14.4915 27.6641 13.6288 27.6641 12.6941C27.6641 11.7596 27.813 10.9028 28.1108 10.1239C28.4206 9.33313 28.8495 8.65011 29.3974 8.07492C29.9574 7.48778 30.6067 7.03245 31.3453 6.70895C32.0958 6.3854 32.9119 6.22363 33.7934 6.22363C34.6751 6.22363 35.4852 6.3854 36.2237 6.70895C36.9743 7.03245 37.6236 7.48778 38.1715 8.07492C38.7315 8.66207 39.1604 9.35107 39.4582 10.1419C39.768 10.9208 39.9228 11.7715 39.9228 12.6941C39.9228 13.6168 39.768 14.4736 39.4582 15.2644C39.1604 16.0433 38.7315 16.7262 38.1715 17.3134C37.6236 17.9005 36.9743 18.3558 36.2237 18.6794C35.4852 19.0029 34.6751 19.1646 33.7934 19.1646ZM33.7934 17.2774C34.401 17.2774 34.955 17.1636 35.4553 16.9359C35.9676 16.7083 36.4085 16.3907 36.7777 15.9833C37.147 15.564 37.433 15.0786 37.6355 14.5275C37.8499 13.9642 37.9571 13.3532 37.9571 12.6941C37.9571 12.0351 37.8499 11.43 37.6355 10.8788C37.433 10.3156 37.147 9.83038 36.7777 9.42296C36.4085 9.00358 35.9676 8.68001 35.4553 8.45238C34.955 8.22468 34.401 8.11087 33.7934 8.11087C33.1859 8.11087 32.626 8.22468 32.1137 8.45238C31.6133 8.68001 31.1726 8.9976 30.7913 9.40495C30.422 9.81244 30.1361 10.2977 29.9335 10.8608C29.731 11.412 29.6298 12.0232 29.6298 12.6941C29.6298 13.3532 29.731 13.9642 29.9335 14.5275C30.1361 15.0906 30.422 15.5759 30.7913 15.9833C31.1726 16.3907 31.6133 16.7083 32.1137 16.9359C32.626 17.1636 33.1859 17.2774 33.7934 17.2774Z" fill="#31373D"/>
<path d="M41.4756 18.9854V9.54923H43.3162V11.4905L42.9946 11.7061C43.1137 11.2867 43.346 10.9033 43.6915 10.5558C44.037 10.1963 44.448 9.90874 44.9245 9.69307C45.401 9.46538 45.8895 9.35156 46.3899 9.35156C47.1046 9.35156 47.7003 9.49534 48.1768 9.7829C48.6534 10.0586 49.0108 10.4839 49.249 11.0591C49.4872 11.6342 49.6064 12.3592 49.6064 13.2339V18.9854H47.7658V13.3597C47.7658 12.8205 47.6944 12.3771 47.5514 12.0297C47.4084 11.6702 47.1881 11.4125 46.8902 11.2568C46.5924 11.089 46.2231 11.0172 45.7823 11.041C45.4249 11.041 45.0973 11.101 44.7994 11.2208C44.5016 11.3287 44.2395 11.4845 44.0131 11.6881C43.7987 11.8918 43.6259 12.1315 43.4949 12.4071C43.3757 12.6707 43.3162 12.9583 43.3162 13.2698V18.9854H42.4048C42.25 18.9854 42.0951 18.9854 41.9402 18.9854C41.7854 18.9854 41.6305 18.9854 41.4756 18.9854Z" fill="#31373D"/>
<path d="M55.8779 18.9849V6.40332H60.7742C61.6678 6.40332 62.4719 6.5531 63.1867 6.85268C63.9134 7.1522 64.5329 7.58361 65.0453 8.14677C65.5574 8.70993 65.9507 9.37494 66.2246 10.1418C66.4985 10.9087 66.6354 11.7595 66.6354 12.6941C66.6354 13.6287 66.4985 14.4855 66.2246 15.2643C65.9507 16.0312 65.5574 16.6962 65.0453 17.2594C64.5448 17.8106 63.9313 18.236 63.2046 18.5355C62.4778 18.8351 61.6678 18.9849 60.7742 18.9849H55.8779ZM57.8079 17.3133L57.7543 17.1156H60.6849C61.3163 17.1156 61.8762 17.0137 62.3647 16.8101C62.865 16.6064 63.282 16.3188 63.6156 15.9473C63.961 15.5639 64.2231 15.0966 64.4019 14.5454C64.5805 13.9942 64.6699 13.3771 64.6699 12.6941C64.6699 12.0111 64.5805 11.4 64.4019 10.8608C64.2231 10.3096 63.961 9.84229 63.6156 9.45879C63.2701 9.07542 62.8531 8.78182 62.3647 8.57811C61.8762 8.3744 61.3163 8.27261 60.6849 8.27261H57.7007L57.8079 8.11082V17.3133Z" fill="#31373D"/>
<path d="M72.9636 19.1646C71.9986 19.1646 71.1406 18.9609 70.3903 18.5535C69.6518 18.1341 69.0677 17.5649 68.6393 16.846C68.222 16.1271 68.0137 15.3003 68.0137 14.3656C68.0137 13.6227 68.1331 12.9457 68.3713 12.3346C68.6088 11.7235 68.9372 11.1963 69.3539 10.7529C69.7829 10.2976 70.2891 9.95012 70.8726 9.71046C71.4683 9.45878 72.1115 9.33301 72.8027 9.33301C73.4108 9.33301 73.9761 9.45287 74.4998 9.69246C75.0249 9.92015 75.4773 10.2377 75.8582 10.6451C76.2515 11.0525 76.5494 11.5378 76.7519 12.101C76.9667 12.6521 77.068 13.2573 77.0556 13.9163L77.0381 14.7071H69.372L68.9606 13.2333H75.4474L75.1794 13.5389V13.1074C75.1437 12.712 75.0126 12.3586 74.7861 12.047C74.5602 11.7355 74.274 11.4898 73.9287 11.3101C73.5835 11.1304 73.2077 11.0405 72.8027 11.0405C72.1595 11.0405 71.6176 11.1663 71.1769 11.4179C70.7363 11.6576 70.402 12.0171 70.1762 12.4964C69.949 12.9636 69.8367 13.5448 69.8367 14.2399C69.8367 14.8988 69.973 15.474 70.2476 15.9653C70.5214 16.4446 70.9089 16.816 71.4086 17.0796C71.909 17.3433 72.4873 17.4751 73.1428 17.4751C73.6068 17.4751 74.0358 17.3972 74.4285 17.2414C74.8341 17.0856 75.2689 16.804 75.7336 16.3967L76.6623 17.7087C76.3761 17.9963 76.025 18.248 75.6083 18.4636C75.2034 18.6794 74.7679 18.853 74.3038 18.9849C73.8515 19.1047 73.4043 19.1646 72.9636 19.1646Z" fill="#31373D"/>
<path d="M82.9717 19.1651C82.102 19.1651 81.3219 18.9495 80.6307 18.5181C79.9512 18.0867 79.4093 17.4996 79.0043 16.7568C78.611 16.0138 78.415 15.181 78.415 14.2583C78.415 13.3357 78.611 12.503 79.0043 11.7601C79.4093 11.0172 79.9512 10.43 80.6307 9.99864C81.3219 9.56723 82.102 9.35156 82.9717 9.35156C83.8057 9.35156 84.5624 9.52537 85.2413 9.8728C85.9318 10.2083 86.4569 10.6696 86.8138 11.2568L85.7949 12.5149C85.6047 12.2394 85.3607 11.9877 85.0622 11.7601C84.7649 11.5324 84.4489 11.3526 84.1153 11.2208C83.7823 11.089 83.4604 11.0231 83.1508 11.0231C82.5784 11.0231 82.0664 11.1669 81.614 11.4544C81.1733 11.73 80.8216 12.1135 80.5594 12.6048C80.2978 13.0961 80.1661 13.6473 80.1661 14.2583C80.1661 14.8695 80.303 15.4207 80.5769 15.9119C80.8508 16.3913 81.2142 16.7747 81.6672 17.0623C82.1196 17.3498 82.6206 17.4937 83.1684 17.4937C83.4903 17.4937 83.7992 17.4397 84.0977 17.3319C84.4073 17.224 84.7052 17.0623 84.9908 16.8466C85.277 16.6309 85.545 16.3673 85.7949 16.0557L86.8138 17.3139C86.4329 17.8531 85.8845 18.2964 85.1699 18.644C84.467 18.9915 83.7343 19.1651 82.9717 19.1651Z" fill="#31373D"/>
<path d="M89.83 16.0377L89.7411 14.0247L94.2264 9.54921H96.7101L89.83 16.0377ZM88.1504 18.9853V6.37695H89.9916V18.9853H88.1504ZM94.4763 18.9853L90.9385 14.8334L92.2424 13.6292L96.8354 18.9853H94.4763Z" fill="#31373D"/>
</g>
</g>
<defs>
<clipPath id="clip0_816_29199">
<rect width="98" height="26" fill="white"/>
</clipPath>
</defs>
</svg>
