<svg width="90" height="26" viewBox="0 0 90 26" fill="none" xmlns="http://www.w3.org/2000/svg">
<g clip-path="url(#clip0_846_96183)">
<mask id="mask0_846_96183" style="mask-type:luminance" maskUnits="userSpaceOnUse" x="0" y="2" width="90" height="23">
<path d="M89.6549 2.59998H0.347656V24.822H89.6549V2.59998Z" fill="white"/>
</mask>
<g mask="url(#mask0_846_96183)">
<path d="M64.0085 10.0416C62.6956 10.0416 61.7587 10.4918 61.2988 11.3443L61.0516 11.806V10.2638H58.9153V19.6373H61.1623V14.0607C61.1623 12.7284 61.8836 11.964 63.1403 11.964C64.3386 11.964 65.0257 12.7082 65.0257 14.0052V19.6373H67.2737V13.6029C67.2737 11.3711 66.0532 10.0416 64.0085 10.0416ZM53.1114 10.0416C50.4598 10.0416 48.8177 11.7025 48.8177 14.3759V15.6919C48.8177 18.2628 50.4789 19.8595 53.1533 19.8595C54.9423 19.8595 56.196 19.2015 56.9851 17.848L55.592 17.0435C55.0091 17.8241 54.0778 18.3078 53.1543 18.3078C51.8003 18.3078 50.9922 17.4687 50.9922 16.0626V15.69H57.2637V14.1354C57.2637 11.645 55.635 10.0416 53.1132 10.0416H53.1114ZM55.219 14.1747H50.9846V13.9496C50.9846 12.4065 51.7393 11.555 53.1094 11.555C54.429 11.555 55.2171 12.3941 55.2171 13.8002L55.219 14.1747ZM89.5886 8.72073V6.92764H81.8162V8.72073H84.5414V17.8404H81.8162V19.6335H89.5886V17.8404H86.8627V8.72073H89.5886ZM30.6558 6.66901C27.1846 6.66901 25.0264 8.84046 25.0264 12.3375V14.2283C25.0264 17.7245 27.1837 19.8968 30.6558 19.8968C34.1279 19.8968 36.2852 17.7245 36.2852 14.2283V12.3375C36.2842 8.83663 34.1241 6.66901 30.6558 6.66901ZM33.9628 14.3577C33.9628 16.6795 32.7578 18.0109 30.6558 18.0109C28.5538 18.0109 27.3497 16.6795 27.3497 14.3577V12.2073C27.3497 9.88547 28.5557 8.55407 30.6567 8.55407C32.7578 8.55407 33.9638 9.88547 33.9638 12.2073L33.9628 14.3577ZM43.3429 10.0416C42.1636 10.0416 41.1426 10.532 40.6103 11.3529L40.3688 11.7265V10.2638H38.2316V22.8623H40.4796V18.2992L40.72 18.6574C41.2257 19.4102 42.2132 19.8595 43.362 19.8595C45.2998 19.8595 47.2549 18.5884 47.2549 15.7475V14.1536C47.2549 12.1067 46.0498 10.0416 43.3429 10.0416ZM45.0069 15.6373C45.0069 17.1479 44.1291 18.0865 42.717 18.0865C41.4003 18.0865 40.4814 17.0942 40.4814 15.6747V14.2647C40.4814 12.828 41.4079 11.8165 42.7361 11.8165C44.1377 11.8165 45.0088 12.7542 45.0088 14.2647L45.0069 15.6373ZM73.485 6.92862L68.9501 19.6373H71.2331L72.1014 16.9132H77.3149L77.3233 16.94L78.1819 19.6373H80.4642L75.9221 6.92764L73.485 6.92862ZM72.6588 15.121L74.7042 8.69584L76.7289 15.121H72.6588Z" fill="#31373D"/>
<path d="M20.6308 11.711C20.8768 10.9696 20.9621 10.184 20.8812 9.40672C20.8003 8.62952 20.5548 7.87864 20.1613 7.20433C19.5772 6.18528 18.686 5.37854 17.6161 4.90021C16.5462 4.42188 15.3528 4.29664 14.2075 4.54251C13.691 3.95768 13.0559 3.49038 12.3449 3.1719C11.6339 2.85341 10.8632 2.69108 10.0847 2.69578C8.91328 2.6931 7.77131 3.06403 6.82353 3.75506C5.87571 4.44608 5.17105 5.42148 4.81119 6.54055C4.04857 6.69759 3.32815 7.01635 2.6981 7.47538C2.06807 7.93441 1.54292 8.52324 1.1578 9.20243C0.570598 10.2198 0.320091 11.398 0.44234 12.5674C0.56459 13.7368 1.05329 14.8371 1.8381 15.71C1.59303 16.4508 1.50814 17.2355 1.58908 18.0118C1.67003 18.7881 1.91496 19.5381 2.30754 20.2119C2.89111 21.233 3.78266 22.0415 4.85359 22.5209C5.92453 23.0004 7.11949 23.1259 8.26612 22.8795C8.78223 23.4636 9.4165 23.9305 10.1267 24.249C10.8368 24.5674 11.6064 24.7301 12.3842 24.7262C13.5555 24.7289 14.6975 24.358 15.6453 23.6669C16.5931 22.9759 17.2978 22.0005 17.6576 20.8814C18.4201 20.7243 19.1404 20.4056 19.7703 19.9465C20.4001 19.4875 20.9251 18.8987 21.3101 18.2196C21.8988 17.2025 22.1503 16.0239 22.0282 14.854C21.906 13.6841 21.4167 12.5835 20.6308 11.711ZM12.3842 23.2894C11.4221 23.2903 10.4905 22.9512 9.75267 22.3316C9.78511 22.3134 9.84805 22.2818 9.88431 22.2579L14.2542 19.7253C14.3639 19.6628 14.4549 19.5721 14.518 19.4624C14.5811 19.3528 14.6138 19.2284 14.613 19.1017V12.916L16.4593 13.9859C16.4693 13.9907 16.4778 13.9979 16.4842 14.007C16.4906 14.016 16.4944 14.0266 16.4955 14.0376V19.1573C16.4955 20.2524 16.0625 21.3027 15.2916 22.0775C14.5207 22.8523 13.475 23.2882 12.3842 23.2894ZM3.54982 19.5021C3.06809 18.6664 2.89417 17.6873 3.05844 16.7359C3.09088 16.756 3.14813 16.7905 3.1882 16.8135L7.55907 19.347C7.66791 19.4109 7.79177 19.4447 7.91784 19.4447C8.04397 19.4447 8.16777 19.4109 8.27661 19.347L13.6093 16.2512V18.391C13.6102 18.402 13.6084 18.4131 13.6039 18.4231C13.5994 18.4332 13.5924 18.442 13.5835 18.4485L9.16586 21.0079C8.22131 21.5539 7.09955 21.7014 6.04674 21.4183C4.99391 21.1351 4.09595 20.4442 3.54982 19.4973V19.5021ZM2.40486 9.92367C2.88433 9.08666 3.64198 8.44576 4.54498 8.11335V13.3278C4.54434 13.4544 4.57723 13.5788 4.64026 13.6884C4.7033 13.798 4.79424 13.8887 4.90374 13.9514L10.2374 17.0433L8.38441 18.1171C8.37541 18.1232 8.36499 18.1269 8.35411 18.1279C8.3433 18.1289 8.33242 18.1272 8.32238 18.1228L3.90571 15.5625C2.962 15.0144 2.2735 14.1128 1.99139 13.0556C1.70928 11.9983 1.85661 10.872 2.40104 9.92367H2.40486ZM17.5756 13.4677L12.242 10.3758L14.0863 9.30493C14.0954 9.29889 14.1058 9.29518 14.1166 9.29421C14.1274 9.29323 14.1383 9.29492 14.1484 9.29915L18.565 11.8595C19.2415 12.2519 19.7927 12.8296 20.154 13.5251C20.5152 14.2205 20.6717 15.0048 20.605 15.7863C20.5383 16.5678 20.2513 17.314 19.7774 17.9376C19.3037 18.5613 18.6627 19.0365 17.9296 19.3077V14.0941C17.931 13.9673 17.8987 13.8423 17.836 13.7322C17.7732 13.6221 17.6824 13.5308 17.5728 13.4677H17.5756ZM19.4142 10.69C19.3818 10.6699 19.3245 10.6354 19.2844 10.6123L14.9136 8.07884C14.8047 8.01488 14.6809 7.98114 14.5548 7.98114C14.4287 7.98114 14.3049 8.01488 14.1961 8.07884L8.86245 11.1698V9.03096C8.86206 9.01997 8.86426 9.00899 8.86892 8.99904C8.87359 8.98903 8.88051 8.98026 8.88913 8.9735L13.3059 6.41414C13.9826 6.02252 14.7564 5.8325 15.5368 5.8663C16.3172 5.9001 17.0719 6.15633 17.7125 6.60503C18.3531 7.05366 18.8532 7.67623 19.1542 8.39981C19.4553 9.12339 19.5448 9.91814 19.4123 10.6909L19.4142 10.69ZM7.85581 14.506L6.00863 13.4361C5.99913 13.4308 5.991 13.4234 5.98487 13.4144C5.97875 13.4055 5.97479 13.3952 5.97332 13.3844V8.26467C5.97273 7.47999 6.19496 6.71143 6.614 6.04901C7.03299 5.3866 7.63139 4.85783 8.33909 4.52468C9.04679 4.19152 9.83445 4.06779 10.6097 4.16798C11.3849 4.26818 12.1157 4.58815 12.7162 5.09039C12.6838 5.10859 12.6255 5.1402 12.5845 5.16415L8.21458 7.6967C8.10509 7.75936 8.01418 7.8501 7.95112 7.95969C7.88805 8.06928 7.85516 8.19369 7.85581 8.32025V14.506ZM8.85863 12.3346L11.2344 10.9572L13.6093 12.3346V15.0874L11.2335 16.4648L8.85766 15.0874L8.85863 12.3346Z" fill="#31373D"/>
</g>
</g>
<defs>
<clipPath id="clip0_846_96183">
<rect width="90" height="26" fill="white"/>
</clipPath>
</defs>
</svg>
