<svg width="80" height="26" viewBox="0 0 80 26" fill="none" xmlns="http://www.w3.org/2000/svg">
<g clip-path="url(#clip0_846_96168)">
<mask id="mask0_846_96168" style="mask-type:luminance" maskUnits="userSpaceOnUse" x="0" y="1" width="80" height="22">
<path d="M79.6573 1.29999H0.246094V22.3149H79.6573V1.29999Z" fill="white"/>
</mask>
<g mask="url(#mask0_846_96168)">
<path d="M20.3023 9.26444C20.3014 11.3556 19.5276 13.3635 18.146 14.8594C16.7645 16.3554 14.8848 17.221 12.9081 17.2711V8.77115H5.20117C5.3323 6.70233 6.21717 4.76796 7.66956 3.37521C9.12191 1.98245 11.0285 1.23988 12.988 1.3038C14.9476 1.36771 16.8073 2.23311 18.1757 3.71788C19.5442 5.20263 20.292 7.191 20.3023 9.26444Z" fill="#555E67"/>
<path d="M12.9066 8.77118V17.2712H12.7758C11.7818 17.2712 10.7977 17.0641 9.8795 16.6617C8.96135 16.2592 8.12718 15.6693 7.42465 14.9258C6.72212 14.1822 6.165 13.2995 5.78515 12.328C5.40533 11.3567 5.21021 10.3156 5.21094 9.26446C5.21094 9.10209 5.21094 8.93361 5.21094 8.77118H12.9066Z" fill="#F7F7F7"/>
<path d="M12.9072 17.2712V22.1198H0.246094V8.77118H5.2002C5.2002 8.93361 5.2002 9.10209 5.2002 9.26446C5.19943 10.3156 5.39456 11.3567 5.77437 12.328C6.15423 13.2995 6.71133 14.1822 7.41386 14.9258C8.11639 15.6693 8.95056 16.2592 9.86877 16.6617C10.7869 17.0641 11.7711 17.2712 12.765 17.2712H12.9072Z" fill="#31373D"/>
<path d="M29.3623 6.63708H35.7288C38.9939 6.63708 41.0344 8.13923 41.0344 11.2815C41.0344 14.4238 38.9939 16.0813 35.5984 16.0813H32.1416V21.0624H29.3623V6.63708ZM35.4515 13.5433C37.2432 13.5433 38.2349 12.9692 38.2349 11.3851C38.2349 9.74922 37.2227 9.17514 35.5452 9.17514H32.162V13.5217L35.4515 13.5433Z" fill="#31373D"/>
<path d="M40.8613 18.4725C40.8613 16.9532 41.8163 16.0424 43.5345 15.5503L47.9299 14.29L48.0441 14.2555C48.0441 14.2555 48.0441 14.1648 48.0441 14.126C48.0441 12.9001 47.3505 12.3476 46.118 12.3476C44.8855 12.3476 43.8935 13.0382 43.3181 14.7389L41.0572 13.8497C41.9509 11.303 43.8406 10.3146 46.2322 10.3146C49.2197 10.3146 50.8072 11.9116 50.8072 14.0655V17.7603C50.8072 18.533 51.0478 18.9474 51.6642 18.9474C51.9905 18.9396 52.3108 18.8508 52.599 18.6883V20.8465C51.963 21.1146 51.2874 21.2608 50.6031 21.2781C49.1992 21.2781 48.1175 20.471 48.1175 18.9085V18.6926H48.0441C47.7033 19.491 47.1474 20.1656 46.4466 20.6323C45.7454 21.099 44.9298 21.3371 44.102 21.317C41.947 21.2825 40.8613 19.8365 40.8613 18.4725ZM44.9179 19.0639C45.6545 19.0343 46.3655 18.7711 46.9588 18.3085C47.3036 18.0452 47.5841 17.6988 47.777 17.2979C47.9703 16.8971 48.0702 16.4534 48.0686 16.0036C48.0686 15.9777 48.0686 15.8266 48.0686 15.8266L47.9054 15.8827L44.812 17.0092C44.102 17.2683 43.6163 17.4668 43.6163 18.0366C43.608 18.533 43.9997 19.0639 44.9179 19.0639Z" fill="#31373D"/>
<path d="M53.7037 6.63708H56.4993V21.0624H53.6997L53.7037 6.63708Z" fill="#31373D"/>
<path d="M58.0801 6.63708H60.884V21.0624H58.0801V6.63708Z" fill="#31373D"/>
<path d="M67.1101 21.2826C63.8247 21.2826 61.8047 19.1244 61.8047 15.9303C61.8047 12.5938 63.9187 10.2802 67.1875 10.2802C70.3632 10.2802 72.4727 12.3564 72.4727 16.2886H64.5674C64.6979 17.9158 65.4448 19.0899 67.2778 19.0899C68.641 19.0899 69.7955 18.4382 70.1712 16.9792L72.4483 17.7303C71.5997 20.2294 69.5184 21.2826 67.1101 21.2826ZM69.5959 14.5275C69.3059 13.0859 68.4368 12.4125 67.1875 12.4125C66.593 12.3658 66.0035 12.5574 65.5363 12.9492C65.0691 13.3411 64.7581 13.9045 64.6653 14.5275H69.5959Z" fill="#31373D"/>
<path d="M77.88 19.0852C76.7414 19.0852 76.3657 18.7097 76.3657 17.3846V12.6496H79.3532V10.5345H72.0073V12.6496H73.5945V18.5371C73.5945 20.2636 74.4112 21.2607 76.8105 21.2607C77.702 21.271 78.5916 21.1784 79.4633 20.9845V18.9126C78.9411 19.0167 78.4112 19.0745 77.88 19.0852Z" fill="#31373D"/>
<path d="M73.562 6.63708C73.6759 7.38367 74.0094 8.07332 74.515 8.60801C75.0206 9.1427 75.6721 9.4952 76.3787 9.61538V6.63708H73.562Z" fill="#31373D"/>
</g>
</g>
<defs>
<clipPath id="clip0_846_96168">
<rect width="80" height="26" fill="white"/>
</clipPath>
</defs>
</svg>
