<svg width="102" height="26" viewBox="0 0 102 26" fill="none" xmlns="http://www.w3.org/2000/svg">
<g clip-path="url(#clip0_846_96143)">
<mask id="mask0_846_96143" style="mask-type:luminance" maskUnits="userSpaceOnUse" x="0" y="0" width="102" height="26">
<path d="M101.802 0H0.45166V26H101.802V0Z" fill="white"/>
</mask>
<g mask="url(#mask0_846_96143)">
<path d="M37.0885 16.3736C37.0885 18.6609 34.7012 19.1475 32.8518 19.1475C31.2408 19.1475 29.5683 18.4238 28.9721 18.1386C28.8323 18.0722 28.7446 17.9317 28.7446 17.7768V15.3331C28.7446 15.1371 28.9666 15.0226 29.1253 15.1371C30.9803 16.4866 33.7963 16.801 33.7963 16.041C33.7963 15.2232 28.653 15.4255 28.653 11.8275C28.653 9.86021 30.3983 8.83152 32.7326 8.83152C35.9451 8.83152 36.7766 10.9892 36.8484 12.6721C36.854 12.808 36.7442 12.9209 36.6076 12.9209H33.651C33.5183 12.9209 33.4101 12.8135 33.4101 12.68V12.5907C33.4101 11.9863 33.2056 11.6608 32.7397 11.6608C32.3116 11.6608 32.0692 12.0219 32.0692 12.3316C32.0692 14.1819 37.0893 13.135 37.0893 16.3728L37.0885 16.3736ZM23.066 12.3324C23.066 12.0226 23.3092 11.6616 23.7364 11.6616C24.2023 11.6616 24.4069 11.9871 24.4069 12.5915V12.6808C24.4069 12.8135 24.5143 12.9218 24.6477 12.9218H27.6043C27.7402 12.9218 27.8507 12.8087 27.8452 12.6729C27.7734 10.9908 26.9418 8.8323 23.7294 8.8323C21.395 8.8323 19.6498 9.86099 19.6498 11.8283C19.6498 15.4263 24.793 15.224 24.793 16.0418C24.793 16.8018 21.9778 16.4874 20.122 15.1379C19.9641 15.0226 19.7414 15.1379 19.7414 15.3339V17.7775C19.7414 17.9324 19.8298 18.073 19.9688 18.1394C20.565 18.4246 22.2376 19.1483 23.8486 19.1483C25.6988 19.1483 28.0853 18.6624 28.0853 16.3744C28.0853 13.1367 23.0652 14.1835 23.0652 12.3331L23.066 12.3324ZM39.8951 4.30913C38.4578 4.30913 37.5197 5.05417 37.5197 6.28749C37.5197 7.5208 38.4586 8.26583 39.8951 8.26583C41.3315 8.26583 42.2704 7.5208 42.2704 6.28749C42.2704 5.05417 41.3315 4.30913 39.8951 4.30913ZM9.48099 13.9868C9.48099 17.358 8.49068 19.1475 6.4833 19.1475C5.53093 19.1475 4.67413 18.7454 4.14583 17.471L4.4001 21.4348C4.4088 21.5739 4.29903 21.6908 4.16004 21.6908H0.692515C0.559845 21.6908 0.45166 21.5834 0.45166 21.4498V9.36166C0.45166 9.22893 0.559059 9.12071 0.692515 9.12071H3.01894C3.13818 9.12071 3.23926 9.20761 3.25663 9.32533L3.49196 10.9742C4.0179 9.60424 4.975 8.83152 6.3522 8.83152C8.43858 8.83152 9.48099 10.6155 9.48099 13.9868ZM5.91633 13.9899C5.91633 12.6974 5.70232 11.6616 4.99079 11.6616C4.27928 11.6616 4.06528 12.6974 4.06528 13.9899C4.06528 15.2825 4.27928 16.331 4.99079 16.331C5.70232 16.331 5.91633 15.2825 5.91633 13.9899ZM18.7874 12.9865V18.6087C18.7874 18.7414 18.68 18.8497 18.5466 18.8497H16.2201C16.1009 18.8497 15.9998 18.7628 15.9825 18.6451L15.7898 17.377C15.181 18.4586 14.0548 19.1483 12.8758 19.1483C11.1267 19.1483 10.1174 18.2753 10.1174 16.3546C10.1174 13.4392 12.9201 12.951 15.3618 12.9976C15.143 12.345 14.6968 12.0108 13.7871 12.0108C12.5497 12.0108 11.328 12.759 10.7295 13.188C10.5699 13.3018 10.3496 13.188 10.3496 12.992V10.6977C10.3496 10.5721 10.4089 10.4535 10.5091 10.3777C11.0216 9.9882 12.7202 8.83308 14.8429 8.83308C17.3968 8.83308 18.7883 10.6226 18.7883 12.9873L18.7874 12.9865ZM15.5007 15.1324C15.5031 14.2365 15.4486 13.6786 15.4486 13.6786C14.9898 13.6699 14.107 14.159 14.1038 15.2477C14.1015 15.9241 14.3288 16.4368 14.8272 16.4463C15.3175 16.4558 15.4992 15.8782 15.5007 15.1324ZM41.6355 9.12149H38.1522C38.0196 9.12149 37.9114 9.22893 37.9114 9.36244L37.9177 18.6087C37.9177 18.7414 38.0251 18.8497 38.1585 18.8497H41.6419C41.7745 18.8497 41.8827 18.7423 41.8827 18.6087L41.8764 9.36244C41.8764 9.22971 41.769 9.12149 41.6355 9.12149ZM51.3977 13.9868C51.3977 17.6156 49.733 19.1475 47.0488 19.1475C44.3647 19.1475 42.7001 17.6156 42.7001 13.9868C42.7001 10.358 44.3647 8.826 47.0488 8.826C49.733 8.826 51.3977 10.358 51.3977 13.9868ZM47.9641 13.9868C47.9641 12.6942 47.7525 11.6616 47.0488 11.6616C46.3452 11.6616 46.1336 12.6942 46.1336 13.9868C46.1336 15.2793 46.3452 16.3278 47.0488 16.3278C47.7525 16.3278 47.9641 15.2793 47.9641 13.9868ZM84.6489 13.9868C84.6489 17.6156 82.9844 19.1475 80.2999 19.1475C77.6161 19.1475 75.9516 17.6156 75.9516 13.9868C75.9516 10.358 77.6161 8.826 80.2999 8.826C82.9844 8.826 84.6489 10.358 84.6489 13.9868ZM81.2153 13.9868C81.2153 12.6942 81.0035 11.6616 80.2993 11.6616C79.595 11.6616 79.3832 12.6942 79.3832 13.9868C79.3832 15.2793 79.595 16.3278 80.2993 16.3278C81.0035 16.3278 81.2153 15.2793 81.2153 13.9868ZM101.561 11.6616C101.693 11.6616 101.802 11.5541 101.802 11.4206V9.36088C101.802 9.22815 101.695 9.11993 101.561 9.11993H98.9432V6.68171C98.9432 6.54898 98.836 6.44076 98.7021 6.44076H96.5822C96.462 6.44076 96.3594 6.53 96.3444 6.64934C96.1437 8.18997 95.3751 9.22893 94.3545 9.48653C94.246 9.51337 94.1693 9.60899 94.1693 9.72033V11.4198C94.1693 11.5526 94.2765 11.6608 94.4103 11.6608H94.9684V16.3301C94.9684 17.6464 95.8923 19.1468 98.324 19.1468C100.242 19.1468 101.298 18.4286 101.658 18.126C101.749 18.0494 101.801 17.9372 101.801 17.8186V15.7969C101.801 15.6048 101.588 15.4911 101.427 15.5961C101.072 15.83 100.522 16.1295 100.035 16.1295C99.4155 16.1295 98.9425 15.9209 98.9425 14.8788V11.66H101.56L101.561 11.6616ZM93.9387 13.9868C93.9387 17.6156 92.2742 19.1475 89.5897 19.1475C86.9059 19.1475 85.2414 17.6156 85.2414 13.9868C85.2414 10.358 86.9059 8.826 89.5897 8.826C92.2742 8.826 93.9387 10.358 93.9387 13.9868ZM90.5051 13.9868C90.5051 12.6942 90.2933 11.6616 89.5891 11.6616C88.8848 11.6616 88.673 12.6942 88.673 13.9868C88.673 15.2793 88.8848 16.3278 89.5891 16.3278C90.2933 16.3278 90.5051 15.2793 90.5051 13.9868ZM58.5325 8.83152C57.0511 8.83152 55.8768 9.48568 55.2893 10.9853L55.0389 9.32611C55.0207 9.20839 54.9197 9.12149 54.8012 9.12149H52.4748C52.3422 9.12149 52.2339 9.22893 52.2339 9.36244V18.6087C52.2339 18.7414 52.3413 18.8497 52.4748 18.8497H55.9605C56.0932 18.8497 56.2013 18.7423 56.2013 18.6087L56.2053 12.473C56.2053 11.9017 56.5907 11.6616 56.9255 11.6616C57.2603 11.6616 57.6386 11.8425 57.6386 12.4398V18.6079C57.6386 18.7406 57.746 18.8489 57.8795 18.8489H61.3644C61.497 18.8489 61.6052 18.7415 61.6052 18.6079V11.946C61.6052 10.0198 60.592 8.83152 58.5333 8.83152H58.5325ZM76.4941 9.56232L75.4338 11.7762C75.3695 11.9104 75.1973 11.957 75.0765 11.8694C74.8952 11.7374 74.736 11.6623 74.3982 11.6616C73.898 11.66 73.0787 11.946 73.0787 13.0379V18.6087C73.0787 18.7414 72.9709 18.8497 72.8377 18.8497H69.3528C69.2202 18.8497 69.1117 18.7423 69.1117 18.6087V9.36166C69.1117 9.22893 69.2189 9.12071 69.3528 9.12071H71.6793C71.7982 9.12071 71.8995 9.20761 71.9171 9.32533L72.1756 10.9813C72.7552 9.2147 73.7732 8.83152 74.8822 8.83152C75.6787 8.83152 76.1764 9.08437 76.4109 9.25656C76.5077 9.32767 76.5467 9.45331 76.4941 9.56232ZM72.3608 13.1556C72.3608 13.1556 72.355 13.1501 72.3524 13.1477V13.1556H72.3608ZM67.9891 8.00433C68.1483 8.0991 68.3471 7.98217 68.3471 7.79653V5.37178C68.3471 5.21535 68.2529 5.07313 68.1106 5.00755C64.8637 3.50088 62.1327 4.59593 62.1327 6.72676C62.1327 8.43015 63.9964 9.12071 63.9964 9.12071H62.9107C62.7787 9.12149 62.672 9.22893 62.672 9.36166V18.6079C62.672 18.7406 62.7795 18.8489 62.9127 18.8489H66.3961C66.5286 18.8489 66.6371 18.7415 66.6371 18.6079V11.6608H68.108C68.2405 11.6608 68.349 11.5533 68.349 11.4198V9.36166C68.349 9.23049 68.2418 9.12149 68.1106 9.12149C67.2543 9.11908 65.8796 8.80864 65.8796 8.0146C65.8796 7.29089 67.0243 7.43149 67.9904 8.00433H67.9891Z" fill="#31373D"/>
</g>
</g>
<defs>
<clipPath id="clip0_846_96143">
<rect width="102" height="26" fill="white"/>
</clipPath>
</defs>
</svg>
