<svg width="52" height="26" viewBox="0 0 52 26" fill="none" xmlns="http://www.w3.org/2000/svg">
<g clip-path="url(#clip0_846_96149)">
<mask id="mask0_846_96149" style="mask-type:luminance" maskUnits="userSpaceOnUse" x="0" y="0" width="52" height="26">
<path d="M51.753 0H0.39502V26H51.753V0Z" fill="white"/>
</mask>
<g mask="url(#mask0_846_96149)">
<path d="M25.1205 19.0344L25.1079 19.0614C24.3781 20.4881 23.2204 21.1816 21.5669 21.1816C19.4252 21.1816 17.8704 19.6435 17.8704 17.5275C17.8704 15.4768 19.3783 14.0245 21.7104 13.8252L24.9916 13.5424L25.035 13.5388V12.7148C25.035 11.51 24.3753 10.8726 23.1266 10.8726C21.8813 10.8726 21.1004 11.5228 21.0773 12.5716H18.2675C18.3788 10.1719 20.2796 8.68348 23.2421 8.68348C26.1388 8.68348 27.8001 10.1691 27.8001 12.7616V18.7082H29.801V20.8987H25.3145L25.2914 19.0834V19.0344H25.1205ZM25.035 16.2072V15.6817L22.3709 15.915C22.3093 15.9228 20.8721 16.0916 20.5352 16.7305C20.3833 17.0177 20.3559 17.38 20.4603 17.7254C20.5451 18.009 20.7579 18.409 21.2832 18.6898C21.5325 18.8472 21.8624 18.9437 22.2623 18.9777L22.305 18.9834C22.326 18.9869 22.3485 18.9898 22.3716 18.9918L22.4024 18.9883C22.4647 18.9905 22.5264 18.9918 22.5915 18.9918C24.0307 18.9918 25.035 17.8467 25.035 16.2072ZM7.43503 4.89756C7.47772 4.90252 7.51977 4.90891 7.55482 4.916C8.7713 5.07838 9.88769 5.68326 10.6945 6.61642C12.4517 8.6502 12.3529 11.7086 10.4683 13.6224C9.52138 14.5826 8.23486 15.123 6.89294 15.123C6.8446 15.123 6.79838 15.1201 6.75145 15.1165C6.72487 15.1152 6.69823 15.113 6.67165 15.1123H3.34003V20.9008H0.39502V4.86707H6.90488L6.91676 4.86848C7.08483 4.86848 7.2536 4.877 7.42244 4.89472L7.43503 4.89756ZM8.30978 7.49788H3.34003V12.5382H8.30978V7.49574V7.49788Z" fill="#31373D"/>
<path d="M13.3447 20.9177H16.1756V4.81866H13.3447V20.9177ZM31.2109 7.71752H34.0221V4.86688H31.2109V7.71752ZM46.1929 20.8978V13.0692C46.1929 10.1994 44.8665 8.68335 42.3557 8.68335C40.7841 8.68335 39.6488 9.33926 38.8848 10.6873L38.7937 10.8468V8.96558H35.9839V20.8978H38.7951V13.9882C38.7951 12.1679 39.819 10.9908 41.4025 10.9908C42.7339 10.9908 43.3817 11.7389 43.3817 13.2805V20.8985L46.1929 20.8978ZM48.1078 20.8978H51.7524V17.2026H48.1078V20.8978ZM34.0151 20.9177H31.1843V8.99607H34.0151V20.9177Z" fill="#31373D"/>
</g>
</g>
<defs>
<clipPath id="clip0_846_96149">
<rect width="52" height="26" fill="white"/>
</clipPath>
</defs>
</svg>
